<svg xmlns="http://www.w3.org/2000/svg" width="38.044" height="37.411" viewBox="0 0 38.044 37.411">
  <g id="Allergen_icon" data-name="Allergen icon" transform="translate(-3.072 -2.999)">
    <path id="Path_55" data-name="Path 55" d="M9.351,34.215a17.477,17.477,0,0,1,0-25.032,18.254,18.254,0,0,1,25.486,0,17.478,17.478,0,0,1,0,25.032,18.276,18.276,0,0,1-21.578,2.916" transform="translate(0 0)" fill="none" stroke="#44e0c2" stroke-linecap="round" stroke-linejoin="round" stroke-width="2"/>
    <path id="Path_56" data-name="Path 56" d="M30.967,11.479a14.059,14.059,0,0,1,5.1,19.091A13.761,13.761,0,0,1,17.1,35.452,14.06,14.06,0,0,1,12,16.361,13.717,13.717,0,0,1,27.465,10" transform="translate(-1.939 -1.765)" fill="none" stroke="#44e0c2" stroke-linecap="round" stroke-linejoin="round" stroke-width="2"/>
    <line id="Line_1" data-name="Line 1" x2="21.755" y2="16.586" transform="translate(11.216 13.407)" fill="none" stroke="#44e0c2" stroke-linecap="round" stroke-linejoin="round" stroke-width="2"/>
    <line id="Line_2" data-name="Line 2" y1="14.296" transform="translate(17.589 14.892)" fill="none" stroke="#44e0c2" stroke-linecap="round" stroke-linejoin="round" stroke-width="2"/>
    <line id="Line_3" data-name="Line 3" y1="14.296" transform="translate(25.213 14.892)" fill="none" stroke="#44e0c2" stroke-linecap="round" stroke-linejoin="round" stroke-width="2"/>
    <path id="Path_57" data-name="Path 57" d="M25.767,20v3.063a3.435,3.435,0,0,1-3.466,3.4h0a3.435,3.435,0,0,1-3.466-3.4V20" transform="translate(-4.713 -5.108)" fill="none" stroke="#44e0c2" stroke-linecap="round" stroke-linejoin="round" stroke-width="2"/>
    <path id="Path_58" data-name="Path 58" d="M35.35,20a3.826,3.826,0,0,1,3.911,3.524,3.588,3.588,0,0,1-3.62,3.556" transform="translate(-9.985 -5.108)" fill="none" stroke="#44e0c2" stroke-linecap="round" stroke-linejoin="round" stroke-width="2"/>
  </g>
</svg>
