<?xml version="1.0" encoding="utf-8"?>
<!-- Generator: Adobe Illustrator 21.0.2, SVG Export Plug-In . SVG Version: 6.00 Build 0)  -->
<svg version="1.1" id="Layer_1" xmlns="http://www.w3.org/2000/svg" xmlns:xlink="http://www.w3.org/1999/xlink" x="0px" y="0px"
	 viewBox="0 0 30 30" style="enable-background:new 0 0 30 30;" xml:space="preserve">
<style type="text/css">
	.st0{fill:#232323;}
</style>
<g>
	<path class="st0" d="M11.7,27c-3.6,0-6.5-7.3-6.5-11c0-6.1,4.6-7.4,6.3-7.4c0.8,0,1.6,0.3,2.4,0.6c0.5,0.2,1.1,0.4,1.4,0.4
		c0.2,0,0.6-0.2,1-0.3C17,8.9,18,8.5,19.1,8.5c0,0,0,0,0,0c0.9,0,3.5,0.2,5,2.5l0.4,0.6L24,12c-0.8,0.6-2.1,1.6-2.1,3.7
		c0,2.4,1.6,3.4,2.3,3.8c0.3,0.2,0.7,0.4,0.7,0.9c0,0.3-2.3,6.6-5.7,6.6c-0.8,0-1.4-0.2-1.9-0.5c-0.5-0.2-1-0.4-1.7-0.4
		c-0.4,0-0.9,0.2-1.4,0.4C13.4,26.7,12.6,27,11.7,27L11.7,27z"/>
	<path class="st0" d="M19.5,3c0.1,3.2-2.2,5.4-4.5,5.3C14.6,5.7,17.3,3,19.5,3z"/>
</g>
</svg>
