<svg id="Component_14_1" data-name="Component 14 – 1" xmlns="http://www.w3.org/2000/svg" width="36.002" height="25.637" viewBox="0 0 36.002 25.637">
  <path id="Path_2053" data-name="Path 2053" d="M39.36,998.16a3.108,3.108,0,0,0-1.311.317h0l-7.663,3.683a2.349,2.349,0,0,0-2.221-1.39h0l-4.4.135a9.835,9.835,0,0,1-2.922-.557,13.333,13.333,0,0,0-3.955-.621,16.651,16.651,0,0,0-4.815.942v-.958a.818.818,0,0,0-.818-.818H6.817a.818.818,0,0,0-.818.818v12.171a.818.818,0,0,0,.818.818h4.435a.818.818,0,0,0,.818-.818v-1.047c5.387-.953,8.59.671,13.443.671h0a7.851,7.851,0,0,0,3.372-1.174c1.317-.683,2.823-1.6,4.346-2.584,3.047-1.967,6.168-4.207,7.793-5.309h0a2.211,2.211,0,0,0,.959-1.556,2.4,2.4,0,0,0-.424-1.64,2.624,2.624,0,0,0-2.2-1.08Zm.112,1.593a.844.844,0,0,1,.742.415.807.807,0,0,1,.147.524.482.482,0,0,1-.25.389h0c-1.672,1.133-4.765,3.353-7.764,5.289-1.5.968-2.975,1.864-4.212,2.506a8.847,8.847,0,0,1-2.621.991h0c-4.392,0-7.824-1.619-13.442-.695v-.7a.818.818,0,1,0-1.636,0v2.594h-.409v-10.534h.409v2.59a.818.818,0,1,0,1.636,0v-.709a17.605,17.605,0,0,1,4.815-1.046,11.476,11.476,0,0,1,3.5.557,11.373,11.373,0,0,0,3.385.621h.025l4.417-.135h0a.679.679,0,0,1,.717.618c0,.31-.288.6-.772.618h0l-8.4.36a.838.838,0,0,0-.314.072.818.818,0,0,0,.384,1.562l8.4-.36h0a2.5,2.5,0,0,0,2.1-1.271l8.435-4.054h0a1.731,1.731,0,0,1,.714-.2Zm-31.837.775h.753v10.534H7.635v-10.534Z" transform="translate(-5.998 -987.061)" fill="#fff" fill-rule="evenodd"/>
  <path id="Path_2054" data-name="Path 2054" d="M39.446,983.529a.818.818,0,0,0-.806.83v1.952H36.688a.818.818,0,1,0,0,1.636H38.64V989.9a.818.818,0,1,0,1.636,0v-1.952h1.952a.818.818,0,1,0,0-1.636H40.276v-1.952a.818.818,0,0,0-.83-.83Z" transform="translate(-19.273 -978.415)" fill="#fff" fill-rule="evenodd"/>
  <path id="Path_2055" data-name="Path 2055" d="M32.966,971.029a.818.818,0,0,0-.806.83v.782h-.781a.818.818,0,1,0,0,1.636h.781v.777a.818.818,0,1,0,1.636,0v-.777h.777a.818.818,0,1,0,0-1.636H33.8v-.782a.818.818,0,0,0-.83-.83Z" transform="translate(-9.447 -971.029)" fill="#fff" fill-rule="evenodd"/>
  <path id="Path_2056" data-name="Path 2056" d="M49.326,971.029a.818.818,0,0,0-.806.83v.782h-.781a.818.818,0,1,0,0,1.636h.781v.777a.818.818,0,1,0,1.636,0v-.777h.777a.818.818,0,1,0,0-1.636h-.777v-.782a.818.818,0,0,0-.83-.83Z" transform="translate(-32.499 -971.029)" fill="#fff" fill-rule="evenodd"/>
</svg>
