<svg id="Component_28" data-name="Component 28" xmlns="http://www.w3.org/2000/svg" width="18.326" height="16.5" viewBox="0 0 18.326 16.5">
  <path id="Path_2071" data-name="Path 2071" d="M1.837-16.137a.887.887,0,0,1,.264-.643.86.86,0,0,1,.638-.27H19.261a.869.869,0,0,1,.638.264.882.882,0,0,1,.264.649V-1.463A.888.888,0,0,1,19.9-.82a.86.86,0,0,1-.638.27H2.739A.869.869,0,0,1,2.1-.814a.882.882,0,0,1-.264-.649Zm8.25.924H3.663V-2.387h6.424Zm1.826,0V-2.387h6.424V-15.213Zm.924,1.826h4.576v1.837H12.837Zm0,2.75h4.576V-8.8H12.837Z" transform="translate(-1.837 17.05)" fill="#cb007b"/>
</svg>
