<svg xmlns="http://www.w3.org/2000/svg" width="27" height="27" viewBox="0 0 27 27">
  <path id="Path_1988" data-name="Path 1988" d="M1.494-9.9v5.994h4.5V-.9H-5.994V-3.906h4.5V-9.9H-12.006a1.437,1.437,0,0,1-1.053-.441,1.437,1.437,0,0,1-.441-1.053V-26.406a1.437,1.437,0,0,1,.441-1.053,1.437,1.437,0,0,1,1.053-.441H12.006a1.437,1.437,0,0,1,1.053.441,1.437,1.437,0,0,1,.441,1.053v15.012a1.437,1.437,0,0,1-.441,1.053,1.437,1.437,0,0,1-1.053.441Zm-11.988-3.006H10.494V-24.894H-10.494Zm4.5-7.488H5.994v2.988H-5.994Z" transform="translate(13.5 27.9)" fill="#28771e"/>
</svg>
