<svg xmlns="http://www.w3.org/2000/svg" width="24" height="24" viewBox="0 0 24 24">
  <g id="FB" transform="translate(-733 -655)">
    <rect id="Rectangle_1948" data-name="Rectangle 1948" width="24" height="24" transform="translate(733 655)" fill="none"/>
    <path id="Path_2023" data-name="Path 2023" d="M10-16.33a8.248,8.248,0,0,0-3.24.65A8.225,8.225,0,0,0,4.105-13.9,8.225,8.225,0,0,0,2.32-11.24,8.248,8.248,0,0,0,1.67-8a8.231,8.231,0,0,0,.54,2.95A8.192,8.192,0,0,0,3.69-2.56,8.415,8.415,0,0,0,5.92-.73,8.206,8.206,0,0,0,8.7.23V-5.59H6.58V-8H8.7V-9.84a3.727,3.727,0,0,1,.39-1.76,2.59,2.59,0,0,1,1.09-1.1,3.489,3.489,0,0,1,1.67-.38q.4,0,.88.04.35.03.7.08l.28.04v2.05H12.66a1.33,1.33,0,0,0-1.07.41,1.316,1.316,0,0,0-.29.9V-8h2.31l-.37,2.41H11.3V.23a8.206,8.206,0,0,0,2.78-.96,8.37,8.37,0,0,0,2.23-1.835A8.289,8.289,0,0,0,17.79-5.05,8.231,8.231,0,0,0,18.33-8a8.248,8.248,0,0,0-.65-3.24A8.225,8.225,0,0,0,15.9-13.9,8.225,8.225,0,0,0,13.24-15.68,8.248,8.248,0,0,0,10-16.33Z" transform="translate(735 675)" fill="#ffffff"/>
  </g>
</svg>
