<svg id="Component_15_1" data-name="Component 15 – 1" xmlns="http://www.w3.org/2000/svg" width="35.899" height="35.899" viewBox="0 0 35.899 35.899">
  <path id="Path_2057" data-name="Path 2057" d="M6.188,25.325V18.094a2.094,2.094,0,1,0-4.188,0V31.257a.6.6,0,0,0,.127.369l5.257,6.718v4.58a.6.6,0,0,0,.6.6h5.385a.6.6,0,0,0,.6-.6V33.351a.6.6,0,0,0-.175-.423Zm6.581,17H8.581V38.137a.6.6,0,0,0-.127-.369L3.2,31.05V18.094a.9.9,0,0,1,1.795,0v7.479A.6.6,0,0,0,5.167,26l.867.868a2.291,2.291,0,0,0-.97,3.816l3.693,3.693.846-.846L5.91,29.833a1.094,1.094,0,0,1,1.545-1.549L12.77,33.6Z" transform="translate(-2 -7.624)" fill="#fff"/>
  <path id="Path_2058" data-name="Path 2058" d="M51.872,16a2.1,2.1,0,0,0-2.094,2.094v7.231l-7.6,7.6a.6.6,0,0,0-.175.423v9.573a.6.6,0,0,0,.6.6h5.385a.6.6,0,0,0,.6-.6v-4.58l5.257-6.718a.6.6,0,0,0,.127-.369V18.094A2.1,2.1,0,0,0,51.872,16Zm.9,15.05-5.257,6.718a.6.6,0,0,0-.127.369v4.188H43.2V33.6l5.315-5.314a1.094,1.094,0,0,1,1.545,1.549l-3.693,3.693.846.846L50.9,30.679a2.291,2.291,0,0,0-.97-3.816L50.8,26a.6.6,0,0,0,.175-.423V18.094a.9.9,0,1,1,1.795,0Z" transform="translate(-18.067 -7.624)" fill="#fff"/>
  <path id="Path_2059" data-name="Path 2059" d="M25.343,13.181l-.5,2.7a.6.6,0,0,0,.849.649l2.7-1.3,2.7,1.3a.607.607,0,0,0,.261.06.6.6,0,0,0,.588-.708l-.5-2.7,2.143-1.922a.6.6,0,0,0-.32-1.038l-3-.4L28.913,7.332a.622.622,0,0,0-1.054,0L26.525,9.819l-3,.4a.6.6,0,0,0-.32,1.038Zm1.644-2.216a.6.6,0,0,0,.448-.311l.952-1.774.952,1.774a.6.6,0,0,0,.448.311l2.022.27-1.428,1.28a.6.6,0,0,0-.188.555l.348,1.867-1.892-.915a.6.6,0,0,0-.261-.06.6.6,0,0,0-.261.06l-1.892.915.348-1.867a.6.6,0,0,0-.188-.555l-1.428-1.28Z" transform="translate(-10.437 -4.025)" fill="#fff"/>
  <path id="Path_2060" data-name="Path 2060" d="M34.881,22.021a.6.6,0,0,0-.04-.619l-2.728-3.9a8.975,8.975,0,1,0-12.278,0l-2.728,3.9a.6.6,0,0,0,.491.941h3.22l1.63,3.259a.6.6,0,0,0,.535.331H23a.6.6,0,0,0,.532-.367l2.342-5.62c.033,0,.065,0,.1,0s.065,0,.1,0l2.342,5.62a.6.6,0,0,0,.532.367h.02A.6.6,0,0,0,29.5,25.6l1.629-3.259h3.22A.6.6,0,0,0,34.881,22.021ZM18.2,10.975a7.778,7.778,0,1,1,7.778,7.778A7.787,7.787,0,0,1,18.2,10.975ZM22.933,23.9l-1.21-2.421a.6.6,0,0,0-.535-.331H18.747l2.015-2.88a8.92,8.92,0,0,0,3.864,1.571Zm7.828-2.752a.6.6,0,0,0-.535.331L29.016,23.9l-1.693-4.061a8.915,8.915,0,0,0,3.864-1.571l2.015,2.88Z" transform="translate(-8.025 -2)" fill="#fff"/>
</svg>
