<svg xmlns="http://www.w3.org/2000/svg" width="33.012" height="33.012" viewBox="0 0 33.012 33.012">
  <path id="Path_1984" data-name="Path 1984" d="M18-5.4a8.812,8.812,0,0,1-4.536-1.224,9.111,9.111,0,0,1-3.24-3.24A8.812,8.812,0,0,1,9-14.4a8.812,8.812,0,0,1,1.224-4.536,9.111,9.111,0,0,1,3.24-3.24A8.812,8.812,0,0,1,18-23.4a8.812,8.812,0,0,1,4.536,1.224,9.111,9.111,0,0,1,3.24,3.24A8.812,8.812,0,0,1,27-14.4a8.812,8.812,0,0,1-1.224,4.536,9.111,9.111,0,0,1-3.24,3.24A8.812,8.812,0,0,1,18-5.4Zm0-3.006a5.887,5.887,0,0,0,3.024-.81,5.829,5.829,0,0,0,2.16-2.16,5.887,5.887,0,0,0,.81-3.024,5.887,5.887,0,0,0-.81-3.024,5.829,5.829,0,0,0-2.16-2.16A5.887,5.887,0,0,0,18-20.394a5.887,5.887,0,0,0-3.024.81,5.829,5.829,0,0,0-2.16,2.16,5.887,5.887,0,0,0-.81,3.024,5.887,5.887,0,0,0,.81,3.024,5.829,5.829,0,0,0,2.16,2.16A5.887,5.887,0,0,0,18-8.406Zm-1.494-22.5h2.988v4.5H16.506Zm0,28.512h2.988v4.5H16.506ZM5.274-25,7.4-27.126l3.186,3.186L8.46-21.834ZM25.416-4.86,27.54-6.984,30.726-3.8,28.6-1.674ZM28.6-27.126,30.726-25,27.54-21.834,25.416-23.94ZM8.46-6.984,10.584-4.86,7.4-1.674,5.274-3.8Zm26.046-8.91v2.988h-4.5v-2.988Zm-28.512,0v2.988h-4.5v-2.988Z" transform="translate(-1.494 30.906)" fill="#3952ae"/>
</svg>
