<svg xmlns="http://www.w3.org/2000/svg" width="24" height="24" viewBox="0 0 24 24">
  <g id="Google" transform="translate(-733 -655)">
    <rect id="Rectangle_1948" data-name="Rectangle 1948" width="24" height="24" transform="translate(733 655)" fill="none"/>
    <path id="Path_2024" data-name="Path 2024" d="M2.55-11.74a8.131,8.131,0,0,1,1.86-2.44,8.338,8.338,0,0,1,2.57-1.59A8.363,8.363,0,0,1,10-16.33a8.242,8.242,0,0,1,3.09.58,7.918,7.918,0,0,1,2.48,1.59l-2.38,2.39a4.423,4.423,0,0,0-1.46-.935A4.731,4.731,0,0,0,10-13.02a4.769,4.769,0,0,0-2.03.45,5,5,0,0,0-1.62,1.22A4.934,4.934,0,0,0,5.34-9.58,4.967,4.967,0,0,0,5.08-8a4.967,4.967,0,0,0,.26,1.58A5.059,5.059,0,0,0,6.36-4.65,5.029,5.029,0,0,0,7.97-3.43,4.769,4.769,0,0,0,10-2.98a5.581,5.581,0,0,0,1.55-.21,4.345,4.345,0,0,0,1.27-.59,3.716,3.716,0,0,0,1.09-1.085,3.814,3.814,0,0,0,.57-1.425H10V-9.51h7.85A9.652,9.652,0,0,1,18-7.81a9.083,9.083,0,0,1-.65,3.47,7.238,7.238,0,0,1-1.84,2.65A7.159,7.159,0,0,1,13.08-.2,8.74,8.74,0,0,1,10,.33,8.3,8.3,0,0,1,6.81-.3,8.211,8.211,0,0,1,4.105-2.105,8.211,8.211,0,0,1,2.3-4.81,8.3,8.3,0,0,1,1.67-8,8.251,8.251,0,0,1,2.55-11.74Z" transform="translate(735 675)" fill="#ffffff"/>
  </g>
</svg>
