<svg xmlns="http://www.w3.org/2000/svg" width="35.921" height="35.827" viewBox="0 0 35.921 35.827">
  <g id="Ingredients_icon" data-name="Ingredients icon" transform="translate(-98 -2142.973)">
    <path id="Path_63" data-name="Path 63" d="M8.937,13.691a2.926,2.926,0,0,0,1.749,2.673,11.366,11.366,0,0,0,9.156,0,2.915,2.915,0,0,0,1.495-3.86,2.953,2.953,0,0,0-3.887-1.485h0a5.427,5.427,0,0,1-4.37,0A2.955,2.955,0,0,0,9.191,12.5,2.9,2.9,0,0,0,8.937,13.691Zm2.03-1.4a1.674,1.674,0,0,1,.911-.274,1.7,1.7,0,0,1,.687.147,6.705,6.705,0,0,0,5.4,0,1.674,1.674,0,0,1,2.362,1.524,1.668,1.668,0,0,1-1,1.525,10.089,10.089,0,0,1-8.128,0,1.67,1.67,0,0,1-1-1.524A1.638,1.638,0,0,1,10.967,12.293Zm.016,17.147a11.35,11.35,0,0,0-1.24-10.092l-.331-.5A.639.639,0,0,0,8.7,18.6l-.575.178A11.466,11.466,0,0,0,.733,25.812,5.391,5.391,0,0,0,4,32.727a5.453,5.453,0,0,0,6.965-3.249c0-.013.009-.025.015-.039ZM7.1,31.585a4.181,4.181,0,0,1-5.226-2.73,4.112,4.112,0,0,1,.055-2.619A10.2,10.2,0,0,1,8.5,19.974l.12-.039.07.105a10.1,10.1,0,0,1,1.1,8.977A4.18,4.18,0,0,1,7.1,31.585ZM4.006,23.8l1.192.422L3.785,28.16l-1.192-.422ZM7.281,21.8l1.192.421-3.027,8.43-1.192-.421Zm2.447,4.033L8.315,29.763l-1.192-.422,1.414-3.935ZM15.169,9.963a2.7,2.7,0,0,0,2.7-2.682V4.639a.626.626,0,0,0-.126-.377L15.97,1.914a.635.635,0,0,0-.507-.251,2.99,2.99,0,0,0-3,2.976V7.281a2.7,2.7,0,0,0,2.7,2.682ZM13.732,4.639a1.726,1.726,0,0,1,1.435-1.695l1.439,1.9V7.281a1.437,1.437,0,0,1-2.874,0ZM35.759,19.992a.633.633,0,0,0-.6-.461l-.6-.008a11.537,11.537,0,0,0-9.224,4.423,5.376,5.376,0,0,0,.983,7.576,5.471,5.471,0,0,0,7.632-.978,11.353,11.353,0,0,0,1.97-9.978Zm-2.812,9.785a4.2,4.2,0,0,1-5.856.75,4.124,4.124,0,0,1-.755-5.814,10.257,10.257,0,0,1,6.778-3.852,10.058,10.058,0,0,1,1.426-.081h.126l.034.122A10.1,10.1,0,0,1,32.947,29.777ZM27.5,27.115l-1-.768,2.57-3.307,1,.768Zm5.309-4.977,1,.768L28.307,29.99l-1-.768Zm.067,3.818,1,.769-2.57,3.306-1-.768ZM24.971,14.431l.223.554a.633.633,0,0,0,.65.391l.6-.059a11.384,11.384,0,0,0,1.582-.268,11.506,11.506,0,0,0,7.088-5.145,5.378,5.378,0,0,0-1.827-7.42A5.464,5.464,0,0,0,25.811,4.3,11.347,11.347,0,0,0,24.971,14.431ZM30.054,2.977a4.143,4.143,0,0,1,3.977,6.276,10.247,10.247,0,0,1-7.713,4.815l-.126.012-.047-.116a10.094,10.094,0,0,1,.747-9.013A4.194,4.194,0,0,1,30.054,2.977ZM32.6,6.994l1.082.652L31.5,11.216l-1.081-.652Zm-4.717,5.533L26.8,11.875l4.678-7.65,1.081.652Zm-.495-3.789-1.081-.652,2.183-3.57,1.083.652ZM2.069,10.525A2.96,2.96,0,0,0,6.2,9.994,2.908,2.908,0,0,0,6.729,8.9,5.355,5.355,0,0,1,9.4,5.463h0a2.913,2.913,0,0,0,1.171-3.968A2.956,2.956,0,0,0,6.6.32a11.22,11.22,0,0,0-5.59,7.2A2.915,2.915,0,0,0,2.069,10.525Zm.166-2.71A9.962,9.962,0,0,1,7.2,1.425a1.691,1.691,0,0,1,1.825.146,1.659,1.659,0,0,1,.3,2.339,1.677,1.677,0,0,1-.531.449A6.613,6.613,0,0,0,5.5,8.6a1.686,1.686,0,0,1-2.659.927,1.662,1.662,0,0,1-.607-1.714Zm20.917,21.9a2.953,2.953,0,0,0-2.8-.22,5.421,5.421,0,0,1-4.37,0,2.954,2.954,0,0,0-3.888,1.485,2.914,2.914,0,0,0,1.5,3.859h0a11.353,11.353,0,0,0,9.155,0,2.915,2.915,0,0,0,.409-5.123Zm-.922,3.976a10.083,10.083,0,0,1-8.128,0,1.668,1.668,0,0,1,.677-3.2,1.712,1.712,0,0,1,.688.147,6.691,6.691,0,0,0,5.4,0,1.686,1.686,0,0,1,2.218.847,1.663,1.663,0,0,1-.853,2.2ZM15.72,25.418a2.714,2.714,0,0,0,3.78.55,2.669,2.669,0,0,0,.57-3.733l-1.578-2.128a.634.634,0,0,0-.328-.229l-2.83-.845a.635.635,0,0,0-.558.1,2.962,2.962,0,0,0-.636,4.161h0ZM15.3,20.335l2.3.687,1.453,1.958a1.423,1.423,0,0,1-.3,2,1.446,1.446,0,0,1-2.01-.3h0L15.16,22.546a1.713,1.713,0,0,1,.143-2.211ZM20.893,6.1a1.893,1.893,0,0,0,1.342-.55l1.343-1.332a1.876,1.876,0,0,0,0-2.665,1.907,1.907,0,0,0-2.684,0L19.55,2.881a1.875,1.875,0,0,0,0,2.664A1.9,1.9,0,0,0,20.893,6.1Zm-.447-2.327,1.342-1.332a.636.636,0,0,1,.895.01.624.624,0,0,1,0,.878L21.341,4.657a.637.637,0,0,1-.9.006.624.624,0,0,1,0-.888ZM24.214,21.1l1.627-.97a1.876,1.876,0,0,0,.651-2.585,1.907,1.907,0,0,0-2.6-.646l-1.626.969a1.876,1.876,0,0,0-.652,2.585A1.906,1.906,0,0,0,24.214,21.1Zm-.651-1.078a.635.635,0,0,1-.868-.216.626.626,0,0,1,.217-.863l1.628-.969a.636.636,0,0,1,.868.216.626.626,0,0,1-.217.862ZM4.9,16.725V14.841a1.9,1.9,0,0,0-3.8,0v1.884a1.9,1.9,0,0,0,3.8,0Zm-1.265,0a.633.633,0,0,1-1.266,0V14.841a.633.633,0,0,1,1.266,0Z" transform="translate(97.592 2143)" fill="#ff75ba"/>
  </g>
</svg>
