<svg xmlns="http://www.w3.org/2000/svg" width="31.23" height="25.506" viewBox="0 0 31.23 25.506">
  <path id="Path_1987" data-name="Path 1987" d="M-14.994-5.4H-4.5v3.006H-14.994Zm0-10.494h13.5v2.988h-13.5Zm0-10.512H14.994V-23.4H-14.994ZM13.014-12.87l1.728-.576,1.494,2.592L14.868-9.648a5.781,5.781,0,0,1,0,2.484l1.368,1.206-1.494,2.61-1.728-.594A5.744,5.744,0,0,1,10.854-2.7l-.36,1.8H7.506l-.36-1.8a6.083,6.083,0,0,1-2.16-1.242l-1.728.594L1.764-5.958,3.132-7.164a5.781,5.781,0,0,1,0-2.484L1.764-10.854l1.494-2.592,1.728.576a6.083,6.083,0,0,1,2.16-1.242l.36-1.782h2.988l.36,1.782A6.083,6.083,0,0,1,13.014-12.87ZM9-5.4a2.927,2.927,0,0,0,1.5-.405,3.033,3.033,0,0,0,1.1-1.089,2.9,2.9,0,0,0,.4-1.5,2.9,2.9,0,0,0-.4-1.5,3.033,3.033,0,0,0-1.1-1.089,2.927,2.927,0,0,0-1.5-.4,2.927,2.927,0,0,0-1.5.4A3.033,3.033,0,0,0,6.4-9.9a2.9,2.9,0,0,0-.405,1.5,2.9,2.9,0,0,0,.405,1.5A3.033,3.033,0,0,0,7.5-5.805,2.927,2.927,0,0,0,9-5.4Z" transform="translate(14.994 26.406)" fill="#44e0c2"/>
</svg>
