<svg id="Component_25" data-name="Component 25" xmlns="https://www.w3.org/2000/svg" width="17.116" height="17.116" viewBox="0 0 17.116 17.116">
  <path id="Path_2203" data-name="Path 2203" d="M16.357-8.976l-.649-.649L6.633-.55H2.75V-4.444L13.123-14.806,18.3-9.625a.864.864,0,0,1,.275.649.864.864,0,0,1-.275.649L11.825-1.848l-1.3-1.3Zm-1.936-1.947-1.3-1.3L4.587-3.685v1.3h1.3ZM17.006-17.4l2.6,2.6a.876.876,0,0,1,.264.644.876.876,0,0,1-.264.643l-1.3,1.3L14.421-16.1l1.287-1.3a.913.913,0,0,1,.655-.264A.876.876,0,0,1,17.006-17.4Z" transform="translate(-2.75 17.666)" fill="#cb007b"/>
</svg>
