<svg id="Component_27" data-name="Component 27" xmlns="http://www.w3.org/2000/svg" width="18.326" height="16.5" viewBox="0 0 18.326 16.5">
  <path id="Path_2070" data-name="Path 2070" d="M2.75-10.637H1.837v-5.489a.891.891,0,0,1,.27-.654.866.866,0,0,1,.632-.27H19.261a.878.878,0,0,1,.644.27.854.854,0,0,1,.258.654v5.489H19.25v9.174a.888.888,0,0,1-.264.644.873.873,0,0,1-.649.27H3.663a.873.873,0,0,1-.649-.27.887.887,0,0,1-.264-.644Zm14.663,0H4.587v8.25H17.413ZM3.663-15.213v2.75H18.337v-2.75ZM8.25-8.8h5.5v1.837H8.25Z" transform="translate(-1.837 17.05)" fill="#cb007b"/>
</svg>
