<svg xmlns="https://www.w3.org/2000/svg" width="24" height="24" viewBox="0 0 24 24">
  <g id="Notification_Bell" data-name="Notification Bell" transform="translate(-1117 -29)">
    <rect id="Rectangle_2040" data-name="Rectangle 2040" width="24" height="24" transform="translate(1117 29)" fill="none"/>
    <path id="Path_2066" data-name="Path 2066" d="M5-3.6H19v-6.972a6.967,6.967,0,0,0-.552-2.736A6.947,6.947,0,0,0,16.95-15.54a6.994,6.994,0,0,0-2.226-1.512A6.88,6.88,0,0,0,12-17.6a6.88,6.88,0,0,0-2.724.552A6.994,6.994,0,0,0,7.05-15.54a6.947,6.947,0,0,0-1.494,2.232A6.967,6.967,0,0,0,5-10.572Zm7-16a8.877,8.877,0,0,1,3.5.708,8.866,8.866,0,0,1,2.862,1.932,8.982,8.982,0,0,1,1.926,2.868A8.964,8.964,0,0,1,21-10.572V-1.6H3v-8.976a8.964,8.964,0,0,1,.708-3.516,8.982,8.982,0,0,1,1.926-2.868A8.866,8.866,0,0,1,8.5-18.888,8.877,8.877,0,0,1,12-19.6ZM9.5-.6H14.5a2.5,2.5,0,0,1-.33,1.254,2.378,2.378,0,0,1-.912.912A2.5,2.5,0,0,1,12,1.9a2.5,2.5,0,0,1-1.254-.33A2.378,2.378,0,0,1,9.834.654,2.5,2.5,0,0,1,9.5-.6Z" transform="translate(1117 50)" fill="#919191"/>
  </g>
</svg>
