<svg xmlns="http://www.w3.org/2000/svg" width="30.161" height="30.491" viewBox="0 0 30.161 30.491">
  <path id="Path_2038" data-name="Path 2038" d="M27.961,14.117a.687.687,0,0,1,1.128-.786c.137.205.273.444.41.649a.685.685,0,0,1-.308.923,1,1,0,0,1-.308.068.72.72,0,0,1-.615-.376C28.166,14.424,28.063,14.288,27.961,14.117Zm-10.9,7.554,4.581,3.658a.657.657,0,0,0,.41.137.6.6,0,0,0,.41-.137l4.581-3.692c1.538-1.367,2.974-2.94,2.974-5.264a.684.684,0,1,0-1.367,0c0,1.709-.957,2.871-2.5,4.239l-4.136,3.316-4.136-3.282c-1.538-1.367-2.5-2.53-2.5-4.239a3.9,3.9,0,0,1,3.9-3.9A3.815,3.815,0,0,1,21.6,13.3a.72.72,0,0,0,.82,0,3.816,3.816,0,0,1,4.17-.308.681.681,0,1,0,.649-1.2,5.287,5.287,0,0,0-2.5-.615,5.1,5.1,0,0,0-2.735.786,5.186,5.186,0,0,0-2.735-.786,5.266,5.266,0,0,0-5.264,5.264C14.048,18.7,15.484,20.27,17.056,21.671Zm13.468,7.315-5.606,4.239A15.624,15.624,0,0,1,22.8,34.558a3.777,3.777,0,0,1-.855.376l-.068.034c-.581.137-1.094.205-2.906-.41-1.846-.649-3.828-1.2-3.828-1.231l-.1-.034-.068-.034s-.615-.308-1.88.479c-1.025.649-2.188,1.4-2.974,1.914a1.5,1.5,0,0,1-.752.239,1.716,1.716,0,0,1-.41-.068,1.236,1.236,0,0,1-.855-.786L5.981,30.046A1.343,1.343,0,0,1,6.7,28.268l5.469-2.324a9.425,9.425,0,0,1,2.222-.615,5.368,5.368,0,0,1,1.675.034,20.425,20.425,0,0,1,2.7.923l1.128.342a2.749,2.749,0,0,0,1.641-.034,2.22,2.22,0,0,1,2.359.615.906.906,0,0,1,.171.205l4.82-2.051h.068a1.892,1.892,0,0,1,2.256,1.367A2.07,2.07,0,0,1,30.524,28.986ZM10.972,33.5,8.989,28.781,7.246,29.5l2.119,5.025C9.809,34.25,10.356,33.874,10.972,33.5ZM29.909,27c-.068-.308-.479-.342-.649-.308l-4.786,2.017a.634.634,0,0,1-.068.239,3.2,3.2,0,0,1-.684.923,6,6,0,0,1-1.367.855,4.326,4.326,0,0,1-2.256.513,24.035,24.035,0,0,1-2.8-.615.684.684,0,0,1-.479-.855.663.663,0,0,1,.82-.479c.034,0,1.846.479,2.6.581a3.169,3.169,0,0,0,1.47-.376l.034-.034a3.747,3.747,0,0,0,1.025-.649,1.469,1.469,0,0,0,.308-.342v-.034a.256.256,0,0,1-.034-.171.472.472,0,0,0-.1-.137.959.959,0,0,0-.957-.342,4.057,4.057,0,0,1-2.564.068l-1.231-.41a16.331,16.331,0,0,0-2.5-.855,2.763,2.763,0,0,0-.547-.034,4.358,4.358,0,0,0-.649.034,7.457,7.457,0,0,0-1.846.513l-2.461,1.06L12.1,32.678c.068-.034.171-.1.239-.137,1.709-1.06,2.837-.718,3.213-.547.342.1,2.154.615,3.828,1.2,1.572.547,1.846.444,2.119.376l.1-.034a2.711,2.711,0,0,0,.547-.273,12.953,12.953,0,0,0,1.914-1.231L29.67,27.79C29.738,27.858,30.046,27.585,29.909,27Zm5.435-9.981H32.609a.684.684,0,0,0,0,1.367h2.735a.684.684,0,0,0,0-1.367Zm-5.333-5.469a.615.615,0,0,0,.513-.239l1.812-2.051a.679.679,0,0,0-1.025-.889L29.5,10.391a.694.694,0,0,0,.068.957A.551.551,0,0,0,30.012,11.553Zm-8-2.051a.686.686,0,0,0,.684-.684V6.084a.684.684,0,1,0-1.367,0V8.818A.686.686,0,0,0,22.013,9.5ZM8.681,18.39h2.735a.684.684,0,0,0,0-1.367H8.681a.684.684,0,0,0,0,1.367Zm4.854-7.076a.666.666,0,0,0,.957.068.694.694,0,0,0,.068-.957L12.749,8.34a.679.679,0,0,0-1.025.889Z" transform="translate(-5.867 -5.4)" fill="#ff75ba"/>
</svg>
