<svg xmlns="https://www.w3.org/2000/svg" width="24" height="24" viewBox="0 0 24 24">
  <g id="Search-grey" transform="translate(-1142 -28)">
    <rect id="Rectangle_2042" data-name="Rectangle 2042" width="24" height="24" transform="translate(1142 28)" fill="none"/>
    <path id="Path_2068" data-name="Path 2068" d="M18.036-4.98,22.32-.7,20.9.708,16.62-3.564a9.147,9.147,0,0,1-2.646,1.458A8.867,8.867,0,0,1,11-1.6,8.877,8.877,0,0,1,7.5-2.3,8.866,8.866,0,0,1,4.638-4.236,9.02,9.02,0,0,1,2.712-7.092,8.949,8.949,0,0,1,2-10.6a8.862,8.862,0,0,1,.708-3.5,8.913,8.913,0,0,1,1.926-2.862A8.913,8.913,0,0,1,7.5-18.888,8.862,8.862,0,0,1,11-19.6a8.949,8.949,0,0,1,3.51.708,9.02,9.02,0,0,1,2.856,1.926A8.866,8.866,0,0,1,19.3-14.1,8.877,8.877,0,0,1,20-10.6a8.867,8.867,0,0,1-.51,2.97A9.147,9.147,0,0,1,18.036-4.98ZM16.02-5.724a6.869,6.869,0,0,0,1.47-2.25A6.954,6.954,0,0,0,18-10.6a6.88,6.88,0,0,0-.552-2.724,6.9,6.9,0,0,0-1.5-2.232,6.936,6.936,0,0,0-2.22-1.5A6.952,6.952,0,0,0,11-17.6a6.866,6.866,0,0,0-2.718.552,6.9,6.9,0,0,0-2.232,1.5,6.9,6.9,0,0,0-1.5,2.232A6.866,6.866,0,0,0,4-10.6a6.952,6.952,0,0,0,.552,2.73,6.936,6.936,0,0,0,1.5,2.22,6.9,6.9,0,0,0,2.232,1.5A6.88,6.88,0,0,0,11-3.6a6.954,6.954,0,0,0,2.622-.51,6.868,6.868,0,0,0,2.25-1.47Z" transform="translate(1142 50)" fill="#919191"/>
  </g>
</svg>
