<svg xmlns="http://www.w3.org/2000/svg" width="16.93" height="16.92" viewBox="0 0 16.93 16.92">
  <path id="Path_2004" data-name="Path 2004" d="M5.03-4.15,8.6-.58,7.42.59,3.85-2.97A7.623,7.623,0,0,1,1.645-1.755,7.389,7.389,0,0,1-.83-1.33a7.4,7.4,0,0,1-2.92-.59A7.388,7.388,0,0,1-6.135-3.53,7.516,7.516,0,0,1-7.74-5.91a7.457,7.457,0,0,1-.59-2.925,7.385,7.385,0,0,1,.59-2.915,7.427,7.427,0,0,1,1.605-2.385A7.427,7.427,0,0,1-3.75-15.74a7.385,7.385,0,0,1,2.915-.59,7.457,7.457,0,0,1,2.925.59,7.516,7.516,0,0,1,2.38,1.605A7.388,7.388,0,0,1,6.08-11.75a7.4,7.4,0,0,1,.59,2.92,7.389,7.389,0,0,1-.425,2.475A7.623,7.623,0,0,1,5.03-4.15ZM3.35-4.77A5.724,5.724,0,0,0,4.575-6.645,5.8,5.8,0,0,0,5-8.83a5.734,5.734,0,0,0-.46-2.27,5.75,5.75,0,0,0-1.25-1.86,5.78,5.78,0,0,0-1.85-1.25,5.793,5.793,0,0,0-2.275-.46,5.721,5.721,0,0,0-2.265.46,5.75,5.75,0,0,0-1.86,1.25A5.75,5.75,0,0,0-6.21-11.1a5.721,5.721,0,0,0-.46,2.265A5.793,5.793,0,0,0-6.21-6.56,5.78,5.78,0,0,0-4.96-4.71,5.75,5.75,0,0,0-3.1-3.46,5.734,5.734,0,0,0-.83-3a5.8,5.8,0,0,0,2.185-.425A5.724,5.724,0,0,0,3.23-4.65Z" transform="translate(8.33 16.33)" fill="#232323"/>
</svg>
