<svg id="Settings_icon" data-name="Settings icon" xmlns="http://www.w3.org/2000/svg" width="17.666" height="18.337" viewBox="0 0 17.666 18.337">
  <path id="Settings_icon-2" data-name="Settings icon" d="M3.058-4.213a9.066,9.066,0,0,1-.891-2.134A2.673,2.673,0,0,0,3.262-7.359a2.75,2.75,0,0,0,.407-1.436,2.674,2.674,0,0,0-.4-1.441,2.7,2.7,0,0,0-1.1-1.017,9.066,9.066,0,0,1,.891-2.134,9,9,0,0,1,1.4-1.837,2.784,2.784,0,0,0,1.436.44,2.671,2.671,0,0,0,1.447-.368,2.708,2.708,0,0,0,1.04-1.073A2.677,2.677,0,0,0,8.7-17.677a8.864,8.864,0,0,1,2.3-.292,9.543,9.543,0,0,1,2.3.292,2.7,2.7,0,0,0,.324,1.463,2.67,2.67,0,0,0,1.04,1.067,2.7,2.7,0,0,0,1.446.363,2.784,2.784,0,0,0,1.435-.44,9,9,0,0,1,1.4,1.837,9.066,9.066,0,0,1,.891,2.134,2.673,2.673,0,0,0-1.094,1.012,2.75,2.75,0,0,0-.407,1.436,2.674,2.674,0,0,0,.4,1.441,2.7,2.7,0,0,0,1.1,1.018,9.066,9.066,0,0,1-.891,2.134,9,9,0,0,1-1.4,1.837,2.784,2.784,0,0,0-1.435-.44,2.671,2.671,0,0,0-1.446.368,2.708,2.708,0,0,0-1.04,1.073A2.677,2.677,0,0,0,13.3.077,8.864,8.864,0,0,1,11,.368,9.543,9.543,0,0,1,8.7.077a2.7,2.7,0,0,0-.324-1.463,2.67,2.67,0,0,0-1.04-1.067,2.7,2.7,0,0,0-1.447-.363,2.784,2.784,0,0,0-1.436.44A9.421,9.421,0,0,1,3.058-4.213Zm5.192.176a4.43,4.43,0,0,1,1.27,1.078A4.422,4.422,0,0,1,10.307-1.5a7.178,7.178,0,0,0,1.375,0,4.589,4.589,0,0,1,.8-1.463A4.43,4.43,0,0,1,13.75-4.037a4.715,4.715,0,0,1,1.568-.556,4.474,4.474,0,0,1,1.667.038,7.332,7.332,0,0,0,.682-1.188A4.538,4.538,0,0,1,16.8-7.161a4.571,4.571,0,0,1-.3-1.644,4.527,4.527,0,0,1,.3-1.639,4.554,4.554,0,0,1,.864-1.414,7.332,7.332,0,0,0-.682-1.188,4.474,4.474,0,0,1-1.667.039,4.715,4.715,0,0,1-1.568-.556,4.43,4.43,0,0,1-1.271-1.078,4.588,4.588,0,0,1-.8-1.463,7.064,7.064,0,0,0-1.364,0,4.588,4.588,0,0,1-.8,1.463,4.43,4.43,0,0,1-1.27,1.078,4.715,4.715,0,0,1-1.568.556,4.474,4.474,0,0,1-1.667-.039,7.331,7.331,0,0,0-.682,1.188A4.538,4.538,0,0,1,5.2-10.439a4.571,4.571,0,0,1,.3,1.645,4.527,4.527,0,0,1-.3,1.639,4.554,4.554,0,0,1-.864,1.414,7.331,7.331,0,0,0,.682,1.188,4.474,4.474,0,0,1,1.667-.038A4.715,4.715,0,0,1,8.25-4.037ZM11-6.05a2.694,2.694,0,0,1-1.38-.369,2.73,2.73,0,0,1-1-1A2.694,2.694,0,0,1,8.25-8.8a2.694,2.694,0,0,1,.368-1.38,2.73,2.73,0,0,1,1-1A2.694,2.694,0,0,1,11-11.55a2.694,2.694,0,0,1,1.381.369,2.73,2.73,0,0,1,1,1A2.694,2.694,0,0,1,13.75-8.8a2.694,2.694,0,0,1-.368,1.38,2.73,2.73,0,0,1-1,1A2.694,2.694,0,0,1,11-6.05Zm0-1.837a.915.915,0,0,0,.457-.121.868.868,0,0,0,.335-.335.915.915,0,0,0,.121-.457.915.915,0,0,0-.121-.457.868.868,0,0,0-.335-.335A.915.915,0,0,0,11-9.713a.882.882,0,0,0-.649.264.882.882,0,0,0-.264.649.882.882,0,0,0,.264.649A.882.882,0,0,0,11-7.887Z" transform="translate(-2.167 17.969)" fill="#cb007b"/>
</svg>
