<svg xmlns="http://www.w3.org/2000/svg" width="24" height="24" viewBox="0 0 24 24">
  <g id="Tick" transform="translate(-521 -553)">
    <rect id="Rectangle_2092" data-name="Rectangle 2092" width="24" height="24" transform="translate(521 553)" fill="none"/>
    <path id="Path_2071" data-name="Path 2071" d="M-4.444-.139A.56.56,0,0,1-5-.417L-9.722-5.139A.5.5,0,0,1-10-5.625a.751.751,0,0,1,.208-.556.751.751,0,0,1,.556-.208.678.678,0,0,1,.486.139l4.306,4.306L8.611-15.139a.864.864,0,0,1,.625-.278.751.751,0,0,1,.556.208.751.751,0,0,1,.208.556.864.864,0,0,1-.278.625L-3.889-.417A.8.8,0,0,1-4.444-.139Z" transform="translate(533 573)" fill="#cb007b"/>
  </g>
</svg>
