<svg fill="#fff" id="_x31_px" enable-background="new 0 0 24 24" height="512" viewBox="0 0 24 24" width="512" xmlns="http://www.w3.org/2000/svg"><path d="m21.5 24h-19c-1.379 0-2.5-1.122-2.5-2.5v-6c0-1.378 1.121-2.5 2.5-2.5h4c.276 0 .5.224.5.5s-.224.5-.5.5h-4c-.827 0-1.5.673-1.5 1.5v6c0 .827.673 1.5 1.5 1.5h19c.827 0 1.5-.673 1.5-1.5v-6c0-.827-.673-1.5-1.5-1.5h-4c-.276 0-.5-.224-.5-.5s.224-.5.5-.5h4c1.379 0 2.5 1.122 2.5 2.5v6c0 1.378-1.121 2.5-2.5 2.5z"/><path d="m13.5 18h-3c-.552 0-1-.449-1-1v-6.5h-3c-.202 0-.385-.122-.462-.309s-.034-.401.108-.545l5.5-5.5c.195-.195.512-.195.707 0l5.5 5.5c.143.143.186.358.108.545s-.259.309-.461.309h-3v6.5c0 .551-.448 1-1 1zm-5.793-8.5h2.293c.276 0 .5.224.5.5v7h3v-7c0-.276.224-.5.5-.5h2.293l-4.293-4.293z"/></svg>