<svg id="Component_25_1" data-name="Component 25 – 1" xmlns="http://www.w3.org/2000/svg" width="82.305" height="60.921" viewBox="0 0 82.305 60.921">
  <path id="Path_2046" data-name="Path 2046" d="M72.763,191.228a6.291,6.291,0,1,0,6.291-6.313A6.309,6.309,0,0,0,72.763,191.228Zm6.291-3.9a3.9,3.9,0,1,1-3.88,3.9A3.9,3.9,0,0,1,79.054,187.326Z" transform="translate(-61.066 -165.881)" fill="#c8c7cc"/>
  <g id="Component_24_1" data-name="Component 24 – 1">
    <path id="Path_2047" data-name="Path 2047" d="M78.438,71.24a1.206,1.206,0,0,0-1.776,1.631,12.189,12.189,0,1,1-8.97-3.949,12.07,12.07,0,0,1,4.812.99A1.206,1.206,0,0,0,73.46,67.7a14.47,14.47,0,0,0-5.768-1.187,14.625,14.625,0,0,0-13.137,8.25H2.164A2.169,2.169,0,0,0,0,76.929v48.335a2.169,2.169,0,0,0,2.164,2.169H75.6a2.169,2.169,0,0,0,2.164-2.169V108.385a1.206,1.206,0,0,0-2.411,0v16.636H2.411V77.172H53.634a14.624,14.624,0,0,0-.467,2.4H19.612a1.206,1.206,0,1,0,0,2.411H53.1a14.609,14.609,0,0,0,17.463,13.58v17.2l-7.076-10.1a1.832,1.832,0,0,0-3.078,0l-6.917,9.873L40.525,94.033a1.832,1.832,0,0,0-3.078,0l-13,18.559-6.952-9.923a1.832,1.832,0,0,0-3.078,0L7.205,112.956V81.986h6.78a1.206,1.206,0,1,0,0-2.411H6.958a2.169,2.169,0,0,0-2.164,2.169V120.45a2.169,2.169,0,0,0,2.164,2.169H70.811a2.169,2.169,0,0,0,2.164-2.169V94.859a14.567,14.567,0,0,0,2.383-1.193V102.6a1.206,1.206,0,1,0,2.411,0V91.8a14.7,14.7,0,0,0,.669-20.556ZM7.205,120.207v-3.048l8.747-12.484,10.882,15.532Zm22.573,0-3.863-5.514,13.07-18.655,16.933,24.168Zm40.786,0h-11.7l-3.9-5.564,6.984-9.968,8.615,12.3v3.236Z" transform="translate(0 -66.511)" fill="#c8c7cc"/>
  </g>
  <path id="Path_2048" data-name="Path 2048" d="M384.326,100.275a1.85,1.85,0,0,0-1.379.617l-5.2,5.816a1.849,1.849,0,0,0,1.379,3.08h1.819v7.445a1.851,1.851,0,0,0,1.849,1.849h3.054a1.851,1.851,0,0,0,1.849-1.849v-7.445h1.819a1.849,1.849,0,0,0,1.379-3.08l-5.195-5.816A1.851,1.851,0,0,0,384.326,100.275Zm2.17,7.1a1.206,1.206,0,0,0-1.206,1.206v8.088h-1.929v-8.088a1.206,1.206,0,0,0-1.206-1.206h-1.768l3.938-4.409,3.938,4.409Z" transform="translate(-316.634 -94.847)" fill="#c8c7cc"/>
</svg>
