<svg xmlns="http://www.w3.org/2000/svg" width="15" height="11.25" viewBox="0 0 15 11.25">
  <path id="Path_2147" data-name="Path 2147" d="M5.417-8.333a.6.6,0,0,0,.417-.208L6.875-9.583v5.625a.549.549,0,0,0,.208.469.762.762,0,0,0,.469.156.563.563,0,0,0,.417-.156.637.637,0,0,0,.156-.469V-9.375l.938.833a.373.373,0,0,0,.365.208A.648.648,0,0,0,9.9-8.542.648.648,0,0,0,10.1-9.01.373.373,0,0,0,9.9-9.375L8.125-11.146a.946.946,0,0,0-.677-.312.946.946,0,0,0-.677.312L5-9.375a.6.6,0,0,0-.208.417A.6.6,0,0,0,5-8.542.6.6,0,0,0,5.417-8.333ZM13.75-6.458h-2.5a.637.637,0,0,0-.469.156.637.637,0,0,0-.156.469.637.637,0,0,0,.156.469.637.637,0,0,0,.469.156h2.5v3.75H1.25v-3.75h2.5a.637.637,0,0,0,.469-.156.637.637,0,0,0,.156-.469A.637.637,0,0,0,4.219-6.3a.637.637,0,0,0-.469-.156H1.25a1.205,1.205,0,0,0-.885.365A1.205,1.205,0,0,0,0-5.208v3.75a1.205,1.205,0,0,0,.365.885,1.205,1.205,0,0,0,.885.365h12.5a1.205,1.205,0,0,0,.885-.365A1.205,1.205,0,0,0,15-1.458v-3.75a1.205,1.205,0,0,0-.365-.885A1.205,1.205,0,0,0,13.75-6.458Z" transform="translate(0 11.458)" fill="#fff"/>
</svg>
