<svg xmlns="http://www.w3.org/2000/svg" width="30.49" height="30.491" viewBox="0 0 30.49 30.491">
  <g id="Group_272" data-name="Group 272" transform="translate(-1 -1)">
    <path id="Path_2000" data-name="Path 2000" d="M25.691,26.779a1.094,1.094,0,0,1-.771-.318l-19.6-19.6a1.089,1.089,0,0,1,1.54-1.54l19.6,19.6a1.088,1.088,0,0,1-.769,1.858Z" transform="translate(4.711 4.713)" fill="#3c803c"/>
    <path id="Path_2001" data-name="Path 2001" d="M4.267,7.178H2.089A1.089,1.089,0,1,1,2.089,5H4.267a1.089,1.089,0,1,1,0,2.178Z" transform="translate(0 4.712)" fill="#3c803c"/>
    <path id="Path_2002" data-name="Path 2002" d="M11.267,7.178H9.089A1.089,1.089,0,1,1,9.089,5h2.178a1.089,1.089,0,1,1,0,2.178Z" transform="translate(8.246 4.712)" fill="#3c803c"/>
    <path id="Path_2003" data-name="Path 2003" d="M6.089,12.356A1.089,1.089,0,0,1,5,11.267V9.089a1.089,1.089,0,1,1,2.178,0v2.178A1.089,1.089,0,0,1,6.089,12.356Z" transform="translate(4.712 8.246)" fill="#3c803c"/>
    <path id="Path_2004" data-name="Path 2004" d="M6.089,5.356A1.089,1.089,0,0,1,5,4.267V2.089a1.089,1.089,0,1,1,2.178,0V4.267A1.089,1.089,0,0,1,6.089,5.356Z" transform="translate(4.712 0)" fill="#3c803c"/>
    <path id="Path_2005" data-name="Path 2005" d="M3.261,10.838A1.088,1.088,0,0,1,2.49,8.98L4.03,7.44A1.089,1.089,0,0,1,5.57,8.98L4.03,10.52A1.085,1.085,0,0,1,3.261,10.838Z" transform="translate(1.38 7.211)" fill="#3c803c"/>
    <path id="Path_2006" data-name="Path 2006" d="M8.21,5.889a1.088,1.088,0,0,1-.771-1.858l1.54-1.54a1.089,1.089,0,0,1,1.54,1.54L8.981,5.569A1.087,1.087,0,0,1,8.21,5.889Z" transform="translate(7.21 1.381)" fill="#3c803c"/>
    <path id="Path_2007" data-name="Path 2007" d="M4.8,5.89a1.094,1.094,0,0,1-.771-.318L2.49,4.03A1.089,1.089,0,0,1,4.03,2.49L5.57,4.03a1.09,1.09,0,0,1,0,1.54A1.078,1.078,0,0,1,4.8,5.89Z" transform="translate(1.38 1.38)" fill="#3c803c"/>
  </g>
</svg>
