<svg xmlns="http://www.w3.org/2000/svg" width="27.132" height="30.491" viewBox="0 0 27.132 30.491">
  <g id="Group_270" data-name="Group 270" transform="translate(-14.611 -9.501)">
    <g id="Group_264" data-name="Group 264" transform="translate(14.611 9.501)">
      <path id="Path_1989" data-name="Path 1989" d="M39.693,28.871a6.611,6.611,0,0,0-1.454.164A6.484,6.484,0,0,0,34,38.412a22.154,22.154,0,0,1,1.723,4.029,11.329,11.329,0,0,1,.376,2.384l.01.109A1.612,1.612,0,0,0,37.813,46.5h3.733a1.63,1.63,0,0,0,1.737-1.564c.019-.157.037-.313.054-.471a13.652,13.652,0,0,1,.26-1.7,18.612,18.612,0,0,1,1.759-4.263,6.492,6.492,0,0,0-5.663-9.634ZM41.91,42.526a10.415,10.415,0,0,0-.2,1.315c-.02.183-.04.366-.064.548-.006.046-.008.093-.01.139,0,.014,0,.028,0,.042a2.462,2.462,0,0,1-.035.244h-3.8v0a5.526,5.526,0,0,1-.065-.675,10.246,10.246,0,0,0-.856-3.486c-.457-1.1-.911-2.086-1.388-3.01a4.881,4.881,0,0,1-.3-3.906,4.791,4.791,0,0,1,2.641-2.8,4.565,4.565,0,0,1,1.839-.384,4.832,4.832,0,0,1,4.721,3.865,5.271,5.271,0,0,1-.667,3.591A18.314,18.314,0,0,0,41.91,42.526Z" transform="translate(-26.129 -21.488)" fill="#3952ae"/>
      <path id="Path_1990" data-name="Path 1990" d="M46.978,77.238H41.8a.966.966,0,1,0,0,1.93h5.178a.966.966,0,1,0,0-1.93Z" transform="translate(-30.821 -51.42)" fill="#3952ae"/>
      <path id="Path_1991" data-name="Path 1991" d="M47.677,84.414H44.062a.971.971,0,0,0,0,1.929h3.615a.971.971,0,0,0,0-1.929Z" transform="translate(-32.303 -55.861)" fill="#3952ae"/>
      <path id="Path_1992" data-name="Path 1992" d="M33.338,34.16a6.525,6.525,0,0,0,.694,4.371,18.612,18.612,0,0,1,1.759,4.262,13.651,13.651,0,0,1,.26,1.7q.026.236.054.471a1.63,1.63,0,0,0,1.737,1.565h3.733a1.612,1.612,0,0,0,1.707-1.567l.009-.109a11.337,11.337,0,0,1,.376-2.384,22.126,22.126,0,0,1,1.723-4.029,6.484,6.484,0,0,0-4.24-9.377A6.588,6.588,0,0,0,39.7,28.9,6.482,6.482,0,0,0,33.338,34.16Zm2.328,3.872A5.269,5.269,0,0,1,35,34.442a4.832,4.832,0,0,1,4.721-3.865,4.564,4.564,0,0,1,1.839.384,4.793,4.793,0,0,1,2.641,2.8,4.881,4.881,0,0,1-.3,3.907c-.478.923-.932,1.908-1.388,3.01a10.242,10.242,0,0,0-.856,3.486,5.356,5.356,0,0,1-.065.675h-.021l-.616-.01v.011H37.792c-.01-.05-.022-.126-.035-.244,0-.014,0-.028,0-.042,0-.047,0-.093-.011-.139-.024-.183-.045-.365-.064-.548a10.267,10.267,0,0,0-.2-1.314A18.3,18.3,0,0,0,35.667,38.033Z" transform="translate(-26.127 -21.504)" fill="#3952ae"/>
      <path id="Path_1993" data-name="Path 1993" d="M41.791,77.264h5.178a.965.965,0,1,1,0,1.929H41.791a.965.965,0,1,1,0-1.929Z" transform="translate(-30.816 -51.436)" fill="#3952ae"/>
      <path id="Path_1994" data-name="Path 1994" d="M44.065,84.438H47.68a.971.971,0,0,1,0,1.929H44.065a.971.971,0,0,1,0-1.929Z" transform="translate(-32.305 -55.876)" fill="#3952ae"/>
      <path id="Path_1995" data-name="Path 1995" d="M27.1,23.188l-2.557-2.557a.971.971,0,0,1,1.364-1.364l2.557,2.556A.971.971,0,0,1,27.1,23.188Z" transform="translate(-20.613 -15.398)" fill="#3952ae"/>
      <path id="Path_1996" data-name="Path 1996" d="M19.088,43.11H15.473a.971.971,0,0,1,0-1.929h3.615a.971.971,0,0,1,0,1.929Z" transform="translate(-14.611 -29.106)" fill="#3952ae"/>
      <path id="Path_1997" data-name="Path 1997" d="M47.668,13.978V10.363a.971.971,0,0,1,1.929,0v3.615a.971.971,0,0,1-1.929,0Z" transform="translate(-35.068 -9.501)" fill="#3952ae"/>
      <path id="Path_1998" data-name="Path 1998" d="M66.17,23.163l2.557-2.557a.971.971,0,0,0-1.365-1.365L64.806,21.8a.971.971,0,0,0,1.364,1.365Z" transform="translate(-45.528 -15.383)" fill="#3952ae"/>
      <path id="Path_1999" data-name="Path 1999" d="M72.649,43.086h3.615a.971.971,0,0,0,0-1.929H72.649a.971.971,0,0,0,0,1.929Z" transform="translate(-49.994 -29.091)" fill="#3952ae"/>
    </g>
  </g>
</svg>
