<svg xmlns="http://www.w3.org/2000/svg" width="20.874" height="30.491" viewBox="0 0 20.874 30.491">
  <g id="Group_275" data-name="Group 275" transform="translate(-18.2 -3.6)">
    <path id="Path_2008" data-name="Path 2008" d="M39.37,36.24a3.527,3.527,0,0,0,2.265.952H41.7a3.384,3.384,0,0,0,2.3-.919c1.182-1.116,1.805-3.02,1.805-5.678a.494.494,0,0,0-.328-.46A10.771,10.771,0,0,1,42.028,28.2a.542.542,0,0,0-.624,0,11.26,11.26,0,0,1-3.479,1.936.494.494,0,0,0-.328.46C37.565,33.22,38.188,35.157,39.37,36.24Zm2.33-7.057a10.642,10.642,0,0,0,3.118,1.74c-.033,2.166-.558,3.742-1.444,4.6a2.393,2.393,0,0,1-1.608.689H41.7a2.448,2.448,0,0,1-1.641-.689c-.919-.853-1.411-2.429-1.444-4.6A11.391,11.391,0,0,0,41.7,29.183Z" transform="translate(-13.03 -16.459)" fill="#44e0c2"/>
    <path id="Path_2009" data-name="Path 2009" d="M45.87,42.323a.468.468,0,0,0,.394-.2L48.069,39.6a.492.492,0,0,0-.788-.591L45.87,40.977l-.492-.689a.492.492,0,1,0-.788.591l.919,1.28C45.542,42.257,45.706,42.323,45.87,42.323Z" transform="translate(-17.66 -23.658)" fill="#44e0c2"/>
    <path id="Path_2010" data-name="Path 2010" d="M43.907,78.7H34.192a.492.492,0,0,0,0,.985H43.94a.5.5,0,0,0,.492-.492A.512.512,0,0,0,43.907,78.7Z" transform="translate(-10.413 -50.451)" fill="#44e0c2"/>
    <path id="Path_2011" data-name="Path 2011" d="M43.907,70.8H34.192a.492.492,0,1,0,0,.985H43.94a.5.5,0,0,0,.492-.492A.512.512,0,0,0,43.907,70.8Z" transform="translate(-10.413 -45.144)" fill="#44e0c2"/>
    <path id="Path_2012" data-name="Path 2012" d="M43.907,62.9H34.192a.492.492,0,0,0,0,.985H43.94a.5.5,0,0,0,.492-.492A.512.512,0,0,0,43.907,62.9Z" transform="translate(-10.413 -39.837)" fill="#44e0c2"/>
    <path id="Path_2013" data-name="Path 2013" d="M38.582,6.751h-4a2.117,2.117,0,0,0-2.035-1.51H30.836a2.294,2.294,0,0,0-4.4,0H24.731A2.117,2.117,0,0,0,22.7,6.751h-4a.5.5,0,0,0-.492.492V33.6a.5.5,0,0,0,.492.492h19.89a.5.5,0,0,0,.492-.492V7.243A.5.5,0,0,0,38.582,6.751ZM24.731,6.193h2.1a.5.5,0,0,0,.492-.46,1.32,1.32,0,0,1,2.626,0,.5.5,0,0,0,.492.46h2.1a1.116,1.116,0,0,1,1.116,1.05h0V7.7H23.616v-.46h0A1.14,1.14,0,0,1,24.731,6.193ZM38.09,33.107H19.185V7.736H22.6v.492a.5.5,0,0,0,.492.492H34.151a.5.5,0,0,0,.492-.492V7.736h3.413V33.107Z" fill="#44e0c2"/>
  </g>
</svg>
