<svg xmlns="http://www.w3.org/2000/svg" width="24" height="24" viewBox="0 0 24 24">
  <g id="Search_Grey" data-name="Search Grey" transform="translate(-648 -883)">
    <rect id="Rectangle_2093" data-name="Rectangle 2093" width="24" height="24" transform="translate(648 883)" fill="none"/>
    <path id="Path_2094" data-name="Path 2094" d="M-4.97-4.15-1.4-.58-2.58.59-6.15-2.97A7.623,7.623,0,0,1-8.355-1.755a7.389,7.389,0,0,1-2.475.425,7.4,7.4,0,0,1-2.92-.59,7.388,7.388,0,0,1-2.385-1.61,7.516,7.516,0,0,1-1.6-2.38,7.457,7.457,0,0,1-.59-2.925,7.385,7.385,0,0,1,.59-2.915,7.427,7.427,0,0,1,1.6-2.385A7.427,7.427,0,0,1-13.75-15.74a7.385,7.385,0,0,1,2.915-.59,7.457,7.457,0,0,1,2.925.59,7.516,7.516,0,0,1,2.38,1.605A7.388,7.388,0,0,1-3.92-11.75a7.4,7.4,0,0,1,.59,2.92,7.389,7.389,0,0,1-.425,2.475A7.623,7.623,0,0,1-4.97-4.15Zm-1.68-.62A5.724,5.724,0,0,0-5.425-6.645,5.8,5.8,0,0,0-5-8.83a5.734,5.734,0,0,0-.46-2.27,5.75,5.75,0,0,0-1.25-1.86,5.78,5.78,0,0,0-1.85-1.25,5.793,5.793,0,0,0-2.275-.46,5.721,5.721,0,0,0-2.265.46,5.75,5.75,0,0,0-1.86,1.25,5.75,5.75,0,0,0-1.25,1.86,5.721,5.721,0,0,0-.46,2.265,5.793,5.793,0,0,0,.46,2.275,5.78,5.78,0,0,0,1.25,1.85A5.75,5.75,0,0,0-13.1-3.46,5.734,5.734,0,0,0-10.83-3a5.8,5.8,0,0,0,2.185-.425A5.724,5.724,0,0,0-6.77-4.65Z" transform="translate(670 903)" fill="#919191"/>
  </g>
</svg>
