<svg xmlns="http://www.w3.org/2000/svg" width="30.858" height="25.647" viewBox="0 0 30.858 25.647">
  <path id="Path_2051" data-name="Path 2051" d="M19.037,2.24a11.362,11.362,0,0,0-8.354,3.307l-.391.391,17.92,17.924.39-.391a11.828,11.828,0,0,0,.755-15.564c.008-.008.018-.014.026-.022a2.2,2.2,0,0,0-3.12-3.115c-.007.007-.012.016-.019.024A12.369,12.369,0,0,0,19.037,2.24Zm-.012,1.094A11.324,11.324,0,0,1,26.76,6.706l.688.683A10.869,10.869,0,0,1,28.2,22.3L11.86,5.95a10.386,10.386,0,0,1,7.165-2.616Zm8.8,1.886a1.1,1.1,0,0,1,.824,1.832q-.2-.224-.42-.44l-.688-.687c-.145-.145-.292-.286-.442-.423a1.094,1.094,0,0,1,.725-.282ZM7.135,11.236H7.083a.551.551,0,0,0-.4.887A1.383,1.383,0,0,1,7.038,13.2a3.017,3.017,0,0,1-.4,1.013,3.724,3.724,0,0,0-.524,1.3,1.96,1.96,0,0,0,.618,1.631.552.552,0,1,0,.781-.781c-.327-.327-.339-.476-.309-.7a3.364,3.364,0,0,1,.4-.923,3.857,3.857,0,0,0,.528-1.416,2.606,2.606,0,0,0-.574-1.866A.551.551,0,0,0,7.135,11.236Zm2.685,0H9.764a.551.551,0,0,0-.4.887A1.383,1.383,0,0,1,9.719,13.2a3.017,3.017,0,0,1-.4,1.013,3.725,3.725,0,0,0-.525,1.3,1.961,1.961,0,0,0,.619,1.631.552.552,0,0,0,.781-.781c-.327-.327-.341-.476-.31-.7a3.363,3.363,0,0,1,.4-.923,3.857,3.857,0,0,0,.529-1.416,2.6,2.6,0,0,0-.569-1.866.551.551,0,0,0-.424-.225Zm2.754,0h-.057a.551.551,0,0,0-.4.887,1.384,1.384,0,0,1,.358,1.077,3,3,0,0,1-.4,1.013,3.727,3.727,0,0,0-.528,1.3,1.965,1.965,0,0,0,.622,1.631.551.551,0,1,0,.777-.781c-.327-.327-.34-.475-.309-.7a3.363,3.363,0,0,1,.4-.923,3.857,3.857,0,0,0,.529-1.416A2.6,2.6,0,0,0,13,11.461.551.551,0,0,0,12.573,11.236Zm16.539.808a.551.551,0,0,0-.522.759,6.365,6.365,0,0,1,.325,2.082,10.339,10.339,0,0,1-1.447,5.307.552.552,0,1,0,.96.546,11.486,11.486,0,0,0,1.59-5.869,7.83,7.83,0,0,0-.4-2.465A.551.551,0,0,0,29.112,12.044Zm-18.905,5.92a.86.86,0,0,0-.7.391,1.163,1.163,0,0,0-.186.659v.606H9.214a1.027,1.027,0,0,0-.992,1.046v.606a1.081,1.081,0,0,0-1.1,1.045v.663a1.081,1.081,0,0,0,1.1,1.045h9.916a1.081,1.081,0,0,0,1.1-1.045v-.663a1.081,1.081,0,0,0-1.1-1.045v-.606a1.027,1.027,0,0,0-.992-1.046h-.111v-.606a1.163,1.163,0,0,0-.186-.659.852.852,0,0,0-.692-.391Zm.22,1.1h5.506v.553H10.427Zm-1.1,1.656h7.71v.549H9.325Zm-1.1,1.651h9.916v.549H8.222Zm-6.613,2.2a.551.551,0,0,0-.493.8,5.489,5.489,0,0,0,1.306,1.688,3.032,3.032,0,0,0,1.943.821H28.058a4.037,4.037,0,0,0,2.164-.78,4.743,4.743,0,0,0,1.635-1.729.55.55,0,0,0-.492-.8Zm1.008,1.1H30.245a5.141,5.141,0,0,1-.634.5,3.309,3.309,0,0,1-1.554.6H4.366a2.025,2.025,0,0,1-1.228-.557A4.8,4.8,0,0,1,2.617,25.679Z" transform="translate(-1.058 -2.237)" fill="#44e0c2"/>
</svg>
