<svg xmlns="http://www.w3.org/2000/svg" width="30" height="30" viewBox="0 0 30 30">
  <path id="Path_2040" data-name="Path 2040" d="M15-26.667a15.145,15.145,0,0,0-7.5,1.979,14.07,14.07,0,0,0-5.521,5.521A15.145,15.145,0,0,0,0-11.667a15.145,15.145,0,0,0,1.979,7.5A14.07,14.07,0,0,0,7.5,1.354,15.145,15.145,0,0,0,15,3.333a15.145,15.145,0,0,0,7.5-1.979,14.07,14.07,0,0,0,5.521-5.521A15.145,15.145,0,0,0,30-11.667a15.145,15.145,0,0,0-1.979-7.5A14.07,14.07,0,0,0,22.5-24.687,15.145,15.145,0,0,0,15-26.667Zm0,27.5A12.393,12.393,0,0,1,8.75-.833,12.1,12.1,0,0,1,4.167-5.417,12.393,12.393,0,0,1,2.5-11.667a12.393,12.393,0,0,1,1.667-6.25A12.1,12.1,0,0,1,8.75-22.5,12.393,12.393,0,0,1,15-24.167,12.393,12.393,0,0,1,21.25-22.5a12.1,12.1,0,0,1,4.583,4.583,12.393,12.393,0,0,1,1.667,6.25,12.393,12.393,0,0,1-1.667,6.25A12.1,12.1,0,0,1,21.25-.833,12.393,12.393,0,0,1,15,.833ZM20.417-8.75A7.786,7.786,0,0,1,15-6.667,7.786,7.786,0,0,1,9.583-8.75a1.3,1.3,0,0,0-.937-.417.99.99,0,0,0-.833.417,1.385,1.385,0,0,0-.312.833,1.2,1.2,0,0,0,.417.833A11.456,11.456,0,0,0,11.25-5.1,10.281,10.281,0,0,0,15-4.375a15.182,15.182,0,0,0,2.5-.208v1.667a1.385,1.385,0,0,0,.313.833,1.1,1.1,0,0,0,.938.417,1.273,1.273,0,0,0,.938-.313A1.273,1.273,0,0,0,20-2.917v-2.5a7.93,7.93,0,0,0,2.083-1.458,1.3,1.3,0,0,0,.417-.937,1.523,1.523,0,0,0-.312-.938.99.99,0,0,0-.833-.417A1.3,1.3,0,0,0,20.417-8.75ZM7.5-16.042a1.832,1.832,0,0,0,.521,1.354,1.832,1.832,0,0,0,1.354.521,1.832,1.832,0,0,0,1.354-.521,1.832,1.832,0,0,0,.521-1.354,1.832,1.832,0,0,0-.521-1.354,1.832,1.832,0,0,0-1.354-.521,1.832,1.832,0,0,0-1.354.521A1.832,1.832,0,0,0,7.5-16.042Zm11.25,0a1.832,1.832,0,0,0,.521,1.354,1.832,1.832,0,0,0,1.354.521,1.832,1.832,0,0,0,1.354-.521,1.832,1.832,0,0,0,.521-1.354,1.832,1.832,0,0,0-.521-1.354,1.832,1.832,0,0,0-1.354-.521,1.832,1.832,0,0,0-1.354.521A1.832,1.832,0,0,0,18.75-16.042Z" transform="translate(0 26.667)" fill="#3952ae"/>
</svg>
