<svg xmlns="http://www.w3.org/2000/svg" width="36.4" height="42" viewBox="0 0 36.4 42">
  <g id="Accessible_icon_default" data-name="Accessible icon default" transform="translate(-241.09 -226.001)">
    <path id="Path_25" data-name="Path 25" d="M255.231,274.649a14.1,14.1,0,0,0,10.2-4.3.93.93,0,0,0-.027-1.327.958.958,0,0,0-1.343.027,12.272,12.272,0,0,1-21.076-8.378,12.057,12.057,0,0,1,6.593-10.739.933.933,0,0,0,.4-1.266.954.954,0,0,0-1.281-.4,13.925,13.925,0,0,0-7.614,12.4,14.076,14.076,0,0,0,14.141,13.979Z" transform="translate(0 -6.648)" fill="#232323"/>
    <path id="Path_26" data-name="Path 26" d="M251.828,256.327a.93.93,0,0,0,.141-1.32.957.957,0,0,0-1.335-.139,9.885,9.885,0,0,0-3.745,7.751,10.106,10.106,0,0,0,17.923,6.265.93.93,0,0,0-.141-1.319.958.958,0,0,0-1.336.139,8.2,8.2,0,0,1-14.548-5.085,8.027,8.027,0,0,1,3.04-6.292Z" transform="translate(-1.74 -8.598)" fill="#232323"/>
    <path id="Path_27" data-name="Path 27" d="M273.453,270.361a2.984,2.984,0,0,0,2.8,1.939H279.3a2.945,2.945,0,1,0,0-5.889h-.958l-3.346-9.1a2.987,2.987,0,0,0-2.8-1.938h-9.2v-5.144h6.154a2.945,2.945,0,1,0,0-5.889h-6.154v-1.068a2.979,2.979,0,0,0-5.958,0v15.046a2.965,2.965,0,0,0,2.978,2.944h10.09Zm-14.517-12.04V243.275a1.08,1.08,0,0,1,2.161,0v2.006a.943.943,0,0,0,.949.939h7.1a1.068,1.068,0,1,1,0,2.135h-7.1a.944.944,0,0,0-.949.939v7.022a.943.943,0,0,0,.949.938h10.147a1.083,1.083,0,0,1,1.016.7l3.573,9.714a.949.949,0,0,0,.892.618H279.3a1.067,1.067,0,1,1,0,2.134h-3.045a1.082,1.082,0,0,1-1.015-.7l-3.573-9.712a.948.948,0,0,0-.892-.618H260.015A1.075,1.075,0,0,1,258.935,258.321Z" transform="translate(-4.784 -4.299)" fill="#232323"/>
    <path id="Path_28" data-name="Path 28" d="M259.58,233.9a3.948,3.948,0,1,0-3.994-3.947A3.975,3.975,0,0,0,259.58,233.9Zm0-6.019a2.071,2.071,0,1,1-2.095,2.071A2.085,2.085,0,0,1,259.58,227.878Z" transform="translate(-4.349)" fill="#232323"/>
  </g>
</svg>
