<svg xmlns="http://www.w3.org/2000/svg" width="40" height="36.904" viewBox="0 0 40 36.904">
  <g id="Group_95" data-name="Group 95" transform="translate(-494.499 -367.857)">
    <g id="Group_94" data-name="Group 94" transform="translate(494.499 367.857)">
      <path id="Path_111" data-name="Path 111" d="M534.352,372.772a.806.806,0,0,0-.474-.325c-.377-.1-4.689-1.184-7.713.9a6.079,6.079,0,0,0-.56.438,34.331,34.331,0,0,0,.288-4.426.816.816,0,0,0-1.632,0q0,1.214-.088,2.407c-1.665-2.554-4.968-3.678-5.537-3.856a.816.816,0,0,0-1.006.393c-.17.318-1.95,3.736-1.15,6.962a.783.783,0,0,0-.21.021.8.8,0,0,0-.47.311c-.218.283-2.432,3.253-2.267,6.485a12.6,12.6,0,0,0-1.637-1.006.818.818,0,0,0-.574-.085.807.807,0,0,0-.467.3,11.78,11.78,0,0,0-2.258,5.477,12.368,12.368,0,0,0-1.241-1.094.816.816,0,0,0-1.08.032c-.286.258-3.549,3.285-3.453,6.957.07,2.667,1.914,4.862,3.079,5.984a32.454,32.454,0,0,1-10.671,3.017.817.817,0,0,0,.085,1.629.746.746,0,0,0,.087,0,33.978,33.978,0,0,0,11.5-3.334c.737,1.2,2.734,3.978,5.721,4.658a6.472,6.472,0,0,0,1.431.157,11.329,11.329,0,0,0,6.211-2.33.8.8,0,0,0,.206-.187.815.815,0,0,0,.09-.856,12.323,12.323,0,0,0-3.67-4.322,7.894,7.894,0,0,0,3.543.93c.112,0,.226,0,.339-.01,3.494-.194,6.1-3.433,6.593-4.093a.877.877,0,0,0,.145-.234.82.82,0,0,0-.149-.851,12.607,12.607,0,0,0-3.151-2.439,7.183,7.183,0,0,0,2.991-.75c3.113-1.606,4.166-5.622,4.346-6.429a.826.826,0,0,0,.038-.266.817.817,0,0,0-.483-.723,12.5,12.5,0,0,0-2.474-.749,6.771,6.771,0,0,0,2.443-1.021c2.958-2.035,3.374-6.422,3.422-7.1A.813.813,0,0,0,534.352,372.772Zm-9.835,8.706a6.48,6.48,0,0,0-.974.339c.064-.163.127-.329.189-.494C523.94,381.372,524.205,381.427,524.516,381.479Zm-5.74-11.787c1.186.473,3.636,1.674,4.449,3.776s-.126,4.635-.653,5.779a11.033,11.033,0,0,1-2.284-1.3,11.086,11.086,0,0,0-1.21-1.134,5.007,5.007,0,0,1-.839-1.394C517.427,373.327,518.283,370.833,518.776,369.691Zm3.4,11.157c-.039.1-.075.2-.115.305-.03-.134-.065-.266-.105-.4Zm-5.473-3.7a11.957,11.957,0,0,1,1.25.864,9.035,9.035,0,0,0,1.209,1.13,5.455,5.455,0,0,1,1.325,2.448c.465,2.209-.87,4.555-1.573,5.6-1.054-.661-3.2-2.25-3.663-4.471C514.793,380.521,516.037,378.2,516.707,377.148Zm.55,10.881c.278.206.538.379.762.521q-.444.607-.915,1.193A7.34,7.34,0,0,0,517.257,388.03Zm-5.508-5.174c1.095.658,3.32,2.239,3.784,4.442s-.869,4.557-1.573,5.6c-1.054-.662-3.2-2.251-3.663-4.472C509.833,386.226,511.077,383.9,511.748,382.856Zm2.383,12.28a13.262,13.262,0,0,0,1.736,1.339,6.369,6.369,0,0,0-1.32-.459,6.131,6.131,0,0,0-1.287-.15Q513.7,395.508,514.131,395.136Zm-1.283-1.015q-1.1.936-2.283,1.775a7.608,7.608,0,0,0,.858-2.862A13.042,13.042,0,0,0,512.848,394.121Zm-8.394-1.51c-.058-2.247,1.585-4.307,2.433-5.217.959.845,2.862,2.8,2.921,5.051s-1.677,4.323-2.558,5.224C506.333,396.828,504.514,394.88,504.453,392.611Zm14.3,8.889c-1.063.7-3.481,2.031-5.771,1.511-2.269-.515-3.91-2.7-4.593-3.767,1.077-.736,3.522-2.153,5.8-1.637S518.089,400.4,518.755,401.5Zm6.9-8.088c-.814.941-2.709,2.817-4.975,2.943-2.246.125-4.352-1.457-5.286-2.279.816-.982,2.714-2.942,4.965-3.067S524.732,392.558,525.658,393.412Zm4.137-9.962c-.36,1.191-1.322,3.677-3.339,4.718-2,1.03-4.568.447-5.755.079.344-1.231,1.277-3.8,3.278-4.827S528.6,383.048,529.795,383.45Zm.351-4.363c-1.859,1.28-4.537.952-5.773.7.2-1.227.848-3.816,2.718-5.1,1.851-1.274,4.474-1.021,5.7-.8C532.6,375.147,532,377.809,530.146,379.087Z" transform="translate(-494.499 -367.857)" fill="#232323"/>
    </g>
  </g>
</svg>
