<svg xmlns="http://www.w3.org/2000/svg" width="41.827" height="36.25" viewBox="0 0 41.827 36.25">
  <g id="Child_Love_icon_default" data-name="Child Love icon default" transform="translate(-390.944 -269.399)">
    <g id="Group_85" data-name="Group 85" transform="translate(390.944 269.399)">
      <path id="Path_71" data-name="Path 71" d="M420.314,269.4a12.219,12.219,0,0,0-8.457,3.363A12.219,12.219,0,0,0,403.4,269.4a12.574,12.574,0,0,0-12.457,12.66c0,4.776,2.335,9.516,6.94,14.088a.822.822,0,0,0,1.156,0,.806.806,0,0,0,0-1.146c-4.287-4.256-6.462-8.611-6.462-12.941A10.945,10.945,0,0,1,403.4,271.02a10.626,10.626,0,0,1,7.855,3.446.823.823,0,0,0,1.2,0,10.628,10.628,0,0,1,7.856-3.446,10.945,10.945,0,0,1,10.823,11.039c0,6.679-5.285,12.292-9.717,15.824a55.171,55.171,0,0,1-9.608,6.074,41.834,41.834,0,0,1-7.55-4.588.822.822,0,0,0-1.14.183.807.807,0,0,0,.184,1.133,57.841,57.841,0,0,0,6.192,3.954,6.77,6.77,0,0,0,2.4,1.012.643.643,0,0,0,.293-.073.694.694,0,0,0,.064-.033,55.338,55.338,0,0,0,10.158-6.374,34.3,34.3,0,0,0,7.074-7.372,17.264,17.264,0,0,0,3.28-9.737A12.574,12.574,0,0,0,420.314,269.4Z" transform="translate(-390.944 -269.399)" fill="#232323"/>
    </g>
    <g id="Group_87" data-name="Group 87" transform="translate(400.374 297.225)">
      <path id="Path_72" data-name="Path 72" d="M405.846,309.531l-.036-.029a.821.821,0,0,0-1.15.106.807.807,0,0,0,.107,1.142l.036.029a.822.822,0,0,0,1.15-.106A.806.806,0,0,0,405.846,309.531Z" transform="translate(-404.472 -309.315)" fill="#232323"/>
    </g>
    <g id="Group_89" data-name="Group 89" transform="translate(412.501 279.87)">
      <path id="Path_73" data-name="Path 73" d="M436.086,288.757a5.821,5.821,0,0,0-2.748-3.554,5.929,5.929,0,0,0-8.057,2.143,7.705,7.705,0,0,0-.956,2.686l-.123.784a13.917,13.917,0,0,1-1.725,4.848l-.021.037a4.315,4.315,0,0,0,1.6,5.922,4.37,4.37,0,0,0,5.161-.582,33.67,33.67,0,0,0,6.262-7.807l.02-.034A5.778,5.778,0,0,0,436.086,288.757Zm-2,3.632-.02.034a32.032,32.032,0,0,1-5.96,7.432,2.736,2.736,0,0,1-3.23.364,2.7,2.7,0,0,1-1-3.707l.022-.037a15.513,15.513,0,0,0,1.924-5.408l.124-.784a6.093,6.093,0,0,1,.757-2.126,4.286,4.286,0,0,1,5.824-1.548,4.215,4.215,0,0,1,1.561,5.781Z" transform="translate(-421.868 -284.42)" fill="#232323"/>
    </g>
    <g id="Group_91" data-name="Group 91" transform="translate(423.112 277.35)">
      <path id="Path_74" data-name="Path 74" d="M438.483,281.041a.822.822,0,0,0-1.156,0,.811.811,0,0,0,.578,1.384.83.83,0,0,0,.578-.238.807.807,0,0,0,0-1.146Z" transform="translate(-437.088 -280.804)" fill="#232323"/>
    </g>
    <g id="Group_93" data-name="Group 93" transform="translate(425.459 278.89)">
      <path id="Path_75" data-name="Path 75" d="M441.849,283.251a.822.822,0,0,0-1.156,0,.808.808,0,0,0,0,1.146.822.822,0,0,0,1.156,0,.8.8,0,0,0,0-1.146Z" transform="translate(-440.455 -283.013)" fill="#232323"/>
    </g>
    <g id="Group_95" data-name="Group 95" transform="translate(426.843 280.942)">
      <path id="Path_76" data-name="Path 76" d="M443.835,286.2a.821.821,0,0,0-1.156,0,.808.808,0,0,0,0,1.146.822.822,0,0,0,1.156,0,.8.8,0,0,0,0-1.146Z" transform="translate(-442.441 -285.957)" fill="#232323"/>
    </g>
    <g id="Group_97" data-name="Group 97" transform="translate(427.621 283.52)">
      <path id="Path_77" data-name="Path 77" d="M444.95,289.892a.821.821,0,0,0-1.155,0,.807.807,0,0,0,0,1.146.82.82,0,0,0,1.155,0,.807.807,0,0,0,0-1.146Z" transform="translate(-443.556 -289.655)" fill="#232323"/>
    </g>
    <g id="Group_99" data-name="Group 99" transform="translate(418.217 274.793)">
      <path id="Path_78" data-name="Path 78" d="M432.157,277.137a2.074,2.074,0,1,0,2.09,2.074A2.085,2.085,0,0,0,432.157,277.137Zm0,2.527a.453.453,0,1,1,.457-.453A.455.455,0,0,1,432.157,279.664Z" transform="translate(-430.067 -277.137)" fill="#232323"/>
    </g>
    <g id="Group_101" data-name="Group 101" transform="translate(396.791 279.87)">
      <path id="Path_79" data-name="Path 79" d="M413.166,295.7l-.022-.037a13.92,13.92,0,0,1-1.725-4.849l-.123-.784a7.718,7.718,0,0,0-.956-2.686,5.929,5.929,0,0,0-8.057-2.143,5.83,5.83,0,0,0-2.159,8l.02.035a33.718,33.718,0,0,0,6.261,7.807,4.373,4.373,0,0,0,5.161.582,4.317,4.317,0,0,0,1.6-5.922Zm-1.142,2.87a2.7,2.7,0,0,1-1.274,1.649,2.736,2.736,0,0,1-3.23-.365,32.04,32.04,0,0,1-5.96-7.431l-.021-.035a4.215,4.215,0,0,1,1.561-5.781,4.287,4.287,0,0,1,5.825,1.549,6.111,6.111,0,0,1,.756,2.126l.124.784a15.542,15.542,0,0,0,1.924,5.408l.022.037A2.678,2.678,0,0,1,412.024,298.57Z" transform="translate(-399.331 -284.42)" fill="#232323"/>
    </g>
    <g id="Group_103" data-name="Group 103" transform="translate(398.968 277.35)">
      <path id="Path_80" data-name="Path 80" d="M403.851,281.041a.824.824,0,0,0-1.156,0,.806.806,0,0,0,0,1.147.821.821,0,0,0,1.156,0,.808.808,0,0,0,0-1.147Z" transform="translate(-402.455 -280.804)" fill="#232323"/>
    </g>
    <g id="Group_105" data-name="Group 105" transform="translate(396.621 278.89)">
      <path id="Path_81" data-name="Path 81" d="M400.483,283.251a.821.821,0,0,0-1.155,0,.805.805,0,0,0,0,1.146.821.821,0,0,0,1.155,0,.8.8,0,0,0,0-1.146Z" transform="translate(-399.088 -283.013)" fill="#232323"/>
    </g>
    <g id="Group_107" data-name="Group 107" transform="translate(395.238 280.942)">
      <path id="Path_82" data-name="Path 82" d="M398.5,286.2a.821.821,0,0,0-1.156,0,.807.807,0,0,0,0,1.146.822.822,0,0,0,1.156,0,.807.807,0,0,0,0-1.146Z" transform="translate(-397.103 -285.957)" fill="#232323"/>
    </g>
    <g id="Group_109" data-name="Group 109" transform="translate(394.46 283.52)">
      <path id="Path_83" data-name="Path 83" d="M397.382,289.892a.817.817,0,0,0-1.394.574.813.813,0,0,0,.239.573.82.82,0,0,0,1.155,0,.807.807,0,0,0,0-1.146Z" transform="translate(-395.988 -289.655)" fill="#232323"/>
    </g>
    <g id="Group_111" data-name="Group 111" transform="translate(401.318 274.793)">
      <path id="Path_84" data-name="Path 84" d="M407.914,277.137a2.074,2.074,0,1,0,2.09,2.074A2.084,2.084,0,0,0,407.914,277.137Zm0,2.527a.453.453,0,1,1,.456-.453A.455.455,0,0,1,407.914,279.664Z" transform="translate(-405.825 -277.137)" fill="#232323"/>
    </g>
    <g id="Group_113" data-name="Group 113" transform="translate(420.763 283.353)">
      <path id="Path_85" data-name="Path 85" d="M435.294,289.524a.82.82,0,0,0-1.115.3.807.807,0,0,0,.3,1.108.987.987,0,0,1,.365,1.351c-.006.009-.01.017-.015.026l-1.014,1.9a.814.814,0,0,0,.721,1.191.818.818,0,0,0,.723-.432l1.007-1.888A2.6,2.6,0,0,0,435.294,289.524Z" transform="translate(-433.719 -289.416)" fill="#232323"/>
    </g>
    <g id="Group_115" data-name="Group 115" transform="translate(419.182 289.928)">
      <path id="Path_86" data-name="Path 86" d="M432.846,299.085a.821.821,0,0,0-1.156,0,.806.806,0,0,0,0,1.146.821.821,0,0,0,1.156,0,.806.806,0,0,0,0-1.146Z" transform="translate(-431.451 -298.847)" fill="#232323"/>
    </g>
  </g>
</svg>
