<svg xmlns="http://www.w3.org/2000/svg" width="40.423" height="39.75" viewBox="0 0 40.423 39.75">
  <g id="Group_93" data-name="Group 93" transform="translate(-494.5 -366.792)">
    <g id="Group_90" data-name="Group 90" transform="translate(515.385 375.55)">
      <g id="Group_89" data-name="Group 89">
        <rect id="Rectangle_25" data-name="Rectangle 25" width="1.348" height="1.347" fill="#232323"/>
      </g>
    </g>
    <g id="Group_92" data-name="Group 92" transform="translate(494.5 366.792)">
      <g id="Group_91" data-name="Group 91">
        <path id="Path_110" data-name="Path 110" d="M529.533,366.792H518.079v1.347h11.454a4.042,4.042,0,0,1,0,8.085H527.09c.107-.441.2-.89.26-1.347h2.183a2.7,2.7,0,1,0,0-5.39H518.079v1.348h11.454a1.347,1.347,0,1,1,0,2.694h-2.055c.009-.225.034-.446.034-.673a.674.674,0,0,0-.673-.674H509.995a15.5,15.5,0,0,0-15.495,15.5q0,.282.01.565a15.811,15.811,0,0,0,15.84,14.931h9.718a6.063,6.063,0,0,0,5.422,3.369h3.369a.674.674,0,0,0,.673-.675,6.062,6.062,0,0,0-3.3-5.389,6.064,6.064,0,0,0,3.3-5.39.674.674,0,0,0-.673-.674h-3.369a6.067,6.067,0,0,0-5.658,3.908l-7.538-2.662a4.464,4.464,0,0,1-2.973-4.2v-.412A4.046,4.046,0,0,1,513.364,387a14.172,14.172,0,0,0,13.475-9.846v.413h2.695a5.39,5.39,0,1,0,0-10.779Zm-4.042,28.97h2.647a4.722,4.722,0,0,1-4.668,4.042h-2.647A4.725,4.725,0,0,1,525.491,395.762Zm-2.021,5.39a4.722,4.722,0,0,1,4.668,4.042h-2.647a4.725,4.725,0,0,1-4.668-4.042Zm-24.617-4.93a13.751,13.751,0,0,1-3-8.028,14.043,14.043,0,0,1,2.259-8.2l10.451,8.606a5.337,5.337,0,0,0-.592,2.444v.412c0,.165.024.326.039.487Zm13.047.729,7.527,2.658v2.218h-8.014Zm-1.289-.649-.549,5.51a14.67,14.67,0,0,1-10.289-4.532l8.51-3.973A5.807,5.807,0,0,0,510.612,396.3Zm-1.281-8.818L498.9,378.9q.43-.539.912-1.044a14.028,14.028,0,0,1,10.181-4.324h.673v12.8h.092A5.366,5.366,0,0,0,509.331,387.483Zm4.033-1.827a5.416,5.416,0,0,0-1.348.177v-12.3h14.131A12.817,12.817,0,0,1,513.364,385.656Z" transform="translate(-494.5 -366.792)" fill="#232323"/>
      </g>
    </g>
  </g>
</svg>
