<svg xmlns="http://www.w3.org/2000/svg" width="40.5" height="30.375" viewBox="0 0 40.5 30.375">
  <g id="Group_44" data-name="Group 44" transform="translate(-494.5 -370.875)">
    <g id="Group_43" data-name="Group 43" transform="translate(494.5 370.875)">
      <g id="Group_42" data-name="Group 42">
        <path id="Path_42" data-name="Path 42" d="M534.893,386.5a19.8,19.8,0,0,0-15.418-10.415c-3.258-4.116-13.483-5.159-13.925-5.2a.843.843,0,0,0-.868,1.143,68.065,68.065,0,0,1,2.3,6.773,28.7,28.7,0,0,0-4.527,2.505c-2.269-3.63-6.9-3.675-7.113-3.675a.844.844,0,0,0-.845.844c0,4.889,1.7,7.342,2.844,8.438-1.14,1.095-2.844,3.549-2.844,8.438a.844.844,0,0,0,.845.844c.212,0,4.844-.046,7.113-3.676a33,33,0,0,0,6.42,3.316,8.983,8.983,0,0,0-.877,4.579.844.844,0,0,0,.844.844c.251,0,5.989-.05,8.846-3.4a19.782,19.782,0,0,0,17.2-10.531A.844.844,0,0,0,534.893,386.5Zm-28.139-13.769c2.835.411,7.489,1.421,10.12,3.227a26.729,26.729,0,0,0-8.326,2.163C508.175,376.634,507.346,374.317,506.754,372.728Zm2.954,26.786c.112-2.347.654-2.947.805-3.069a27.442,27.442,0,0,0,4.823,1.265A12.215,12.215,0,0,1,509.708,399.514Zm.707-3.1v0l.007,0S510.421,396.414,510.415,396.413Zm6.866-.224c-4.931,0-12.992-4.049-14.485-5.576a.841.841,0,0,0-.6-.253.843.843,0,0,0-.774.508,6.442,6.442,0,0,1-5.208,3.56c.264-5.288,2.767-6.7,2.894-6.769a.848.848,0,0,0,0-1.5c-.112-.06-2.63-1.464-2.9-6.766,1.391.2,4.079.936,5.208,3.555a.843.843,0,0,0,1.378.255c1.493-1.527,9.554-5.575,14.485-5.575a18.1,18.1,0,0,1,15.9,9.281A18.106,18.106,0,0,1,517.282,396.188Z" transform="translate(-494.5 -370.875)" fill="#232323"/>
        <path id="Path_43" data-name="Path 43" d="M516.605,385.761a12.337,12.337,0,0,1,1.547-6.284.844.844,0,0,0-1.406-.934,15.155,15.155,0,0,0,0,14.436.842.842,0,0,0,.7.375.843.843,0,0,0,.7-1.312A12.166,12.166,0,0,1,516.605,385.761Z" transform="translate(-491.292 -369.729)" fill="#232323"/>
        <path id="Path_44" data-name="Path 44" d="M515,378.308a.846.846,0,0,0-1.168.235A13.773,13.773,0,0,0,512,385.761a15.375,15.375,0,0,0,.937,5.359.844.844,0,0,0,.79.548.858.858,0,0,0,.3-.053.843.843,0,0,0,.494-1.085,13.711,13.711,0,0,1-.83-4.769,12.331,12.331,0,0,1,1.548-6.284A.845.845,0,0,0,515,378.308Z" transform="translate(-491.75 -369.729)" fill="#232323"/>
        <path id="Path_45" data-name="Path 45" d="M520.98,381.084a1.688,1.688,0,1,1-1.688,1.687A1.687,1.687,0,0,1,520.98,381.084Z" transform="translate(-490.604 -369.271)" fill="#232323"/>
      </g>
    </g>
  </g>
</svg>
