<svg xmlns="http://www.w3.org/2000/svg" width="40.026" height="19.75" viewBox="0 0 40.026 19.75">
  <g id="Group_88" data-name="Group 88" transform="translate(-494.85 -298.296)">
    <path id="Path_108" data-name="Path 108" d="M534.055,310.435,528.5,311.5a5.082,5.082,0,0,0-1.123-.623c.311-3.12,1.309-7.861,2.932-8.548.186-.062.686-.249,1.56.5a.619.619,0,0,0,.811-.935,2.8,2.8,0,0,0-2.869-.687c-2.559,1.123-3.432,7.238-3.681,9.359a14.058,14.058,0,0,0-2.932.312c-2.121-13.413-16.72-15.6-22.709-8.922-3.183,3.557-3.432,8.672.811,11.6a13.207,13.207,0,0,0-6.052,2.933.955.955,0,0,0-.374.935.746.746,0,0,0,.623.623h30.883a3.789,3.789,0,0,0,3.806-2.745l1.685,1.372a.619.619,0,0,0,.811-.935l-2.558-2.121a3.763,3.763,0,0,0-.562-1.123l4.8-.935a.649.649,0,0,0,.5-.749A.755.755,0,0,0,534.055,310.435Zm-25.33-10.856a5.859,5.859,0,0,1-7.673,3.681c.125-.188.249-.312.374-.5A9.93,9.93,0,0,1,508.725,299.579Zm-8.422,4.742a7.069,7.069,0,0,0,9.67-4.742,1.367,1.367,0,0,1,.5.063,8.542,8.542,0,0,1-10.981,9.483A6.975,6.975,0,0,1,500.3,304.322Zm-.186,6.238a9.771,9.771,0,0,0,11.729-10.232,8.566,8.566,0,0,1-7.175,13.226,3.846,3.846,0,0,1-1.186-.125A8.223,8.223,0,0,1,500.116,310.56Zm26.265,6.3H496.934a11.2,11.2,0,0,1,5.99-2.246A9.809,9.809,0,0,0,513.217,300.2c8.173,2.5,8.859,11.23,8.859,11.6a.559.559,0,0,0,.56.561.708.708,0,0,0,.5-.188,12.072,12.072,0,0,1,2.308-.374,3.617,3.617,0,0,1,3.244,1.872C529.625,315.426,528.127,316.861,526.381,316.861Z" transform="translate(0)" fill="#232323"/>
    <path id="Path_109" data-name="Path 109" d="M522.634,311.311h-.624a.624.624,0,0,0,0,1.248h.624a.589.589,0,0,0,.623-.624A.625.625,0,0,0,522.634,311.311Z" transform="translate(3.81 1.869)" fill="#232323"/>
  </g>
</svg>
