<svg xmlns="http://www.w3.org/2000/svg" width="42" height="34.3" viewBox="0 0 42 34.3">
  <g id="Non_veg_icon_default" data-name="Non veg icon default" transform="translate(-225.5 -185.062)">
    <path id="Path_65" data-name="Path 65" d="M265.124,201.5a3.3,3.3,0,0,0-2.806.476.978.978,0,0,1-.792.19l-.029-.008-6.659-1.627c-1.084-3.8-5.081-7.4-7.435-9.252a35.822,35.822,0,0,0-10.952-6.064h0c-4.612-1.308-8.629,6.059-9.969,10.681-1.8,6.213-1.049,11.855,1.645,13.737h-1.8a.815.815,0,0,0-.82.811,5.609,5.609,0,0,0,1.681,4.013,5.73,5.73,0,0,0,3.539,1.638l.972,1.922a2.451,2.451,0,0,0,2.2,1.345h25.194a2.451,2.451,0,0,0,2.2-1.345l.972-1.922a5.708,5.708,0,0,0,5.221-5.651.815.815,0,0,0-.82-.811h-.692a3.217,3.217,0,0,0,.524-2.682,3.227,3.227,0,0,0-1.374-5.45Zm-1.856,1.8a1.648,1.648,0,0,1,1.4-.237,1.614,1.614,0,0,1,.421,2.929.806.806,0,0,0-.3,1.04,1.6,1.6,0,0,1,.1,1.153,1.644,1.644,0,0,1-2.029,1.112,1.622,1.622,0,0,1-1.063-.938,2.53,2.53,0,0,0-1.631-1.512l-.03-.008-5.9-1.443a5.4,5.4,0,0,0,.876-3.123l5.976,1.461A2.568,2.568,0,0,0,263.268,203.3Zm-9.941.2a5.42,5.42,0,0,1-2.446,2.886,3.614,3.614,0,0,0-3.236-1.612,3.569,3.569,0,0,0-3.28,1.679,3.566,3.566,0,0,0-3.279-1.679c-3.4,0-3.968,2.918-4.073,4.632a38.089,38.089,0,0,1-3.831-.1c2.911-2.061,4.955-6.37,5.958-9.829s1.538-8.111.17-11.39a40.146,40.146,0,0,1,7.071,4.466C249.468,194.98,254.405,199.775,253.327,203.494Zm-3.563,4.3a6.5,6.5,0,0,1,.319,1.834h-4.876c.152-2.666,1.089-3.243,2.438-3.243A1.962,1.962,0,0,1,249.764,207.8Zm-6.241,1.834h-4.876c.15-2.674,1.087-3.243,2.439-3.243S243.371,206.966,243.522,209.633Zm-15.464-13.29c1.219-4.208,4.779-10.466,7.94-9.57h0c3.34.949,2.634,8.562,1.564,12.251-1.222,4.215-4.743,10.463-7.893,9.571C226.318,207.645,226.985,200.046,228.058,196.343ZM261.746,214.5h-6.231a.811.811,0,1,0,0,1.622h4.9l-.593,1.173a.817.817,0,0,1-.734.449H233.9a.815.815,0,0,1-.733-.449l-.594-1.173h16.384a.811.811,0,1,0,0-1.622h-17.71a4.1,4.1,0,0,1-2.9-1.186,4.018,4.018,0,0,1-1.119-2.057h38.535A4.1,4.1,0,0,1,261.746,214.5Zm-10.021-4.864a9.592,9.592,0,0,0-.223-1.724,9.989,9.989,0,0,0,1.546-1.137l6.68,1.633a.964.964,0,0,1,.558.573,3.272,3.272,0,0,0,.37.655Z" transform="translate(0)" fill="#232323"/>
    <path id="Path_66" data-name="Path 66" d="M233.284,206.243c1.973.559,3.256-2.858,3.823-4.81.945-3.259.6-5.636-.883-6.055-.437-.125-1.312-.144-2.247,1.12a11.579,11.579,0,0,0-1.6,3.595C231.434,203.349,231.8,205.822,233.284,206.243Zm.671-5.7c.741-2.555,1.533-3.4,1.817-3.566.209.325.454,1.616-.241,4.013-.738,2.547-1.49,3.456-1.8,3.654C233.52,204.286,233.262,202.926,233.954,200.538Z" transform="translate(-1.907 -3.078)" fill="#232323"/>
    <path id="Path_67" data-name="Path 67" d="M264.161,227.922a.82.82,0,1,1-.82-.811A.816.816,0,0,1,264.161,227.922Z" transform="translate(-11.106 -12.615)" fill="#232323"/>
  </g>
</svg>
