<svg xmlns="http://www.w3.org/2000/svg" width="39.942" height="40" viewBox="0 0 39.942 40">
  <g id="Group_84" data-name="Group 84" transform="translate(-494.526 -366.5)">
    <g id="Group_65" data-name="Group 65" transform="translate(510.502 366.5)">
      <g id="Group_64" data-name="Group 64">
        <path id="Path_62" data-name="Path 62" d="M513.782,367.654l-.771-.926a.687.687,0,0,0-.97-.053.577.577,0,0,0-.053.053l-.771.925a11.713,11.713,0,0,0-2.711,7.489,3.994,3.994,0,1,0,7.988,0A11.717,11.717,0,0,0,513.782,367.654ZM512.5,377.805a2.663,2.663,0,0,1-2.663-2.663,10.4,10.4,0,0,1,2.4-6.637l.261-.312.261.312a10.384,10.384,0,0,1,2.4,6.637A2.663,2.663,0,0,1,512.5,377.805Z" transform="translate(-508.505 -366.5)" fill="#232323"/>
      </g>
    </g>
    <g id="Group_67" data-name="Group 67" transform="translate(519.155 371.148)">
      <g id="Group_66" data-name="Group 66">
        <path id="Path_63" data-name="Path 63" d="M523.066,370.567a7,7,0,0,0-6.99,6.99,3,3,0,0,0,5.991,0,1,1,0,0,1,1-1,3,3,0,1,0,0-5.991Zm0,4.661a2.329,2.329,0,0,0-2.329,2.329,1.665,1.665,0,0,1-3.329,0,5.666,5.666,0,0,1,5.658-5.658,1.665,1.665,0,0,1,0,3.329Z" transform="translate(-516.076 -370.567)" fill="#232323"/>
      </g>
    </g>
    <g id="Group_69" data-name="Group 69" transform="translate(498.454 370.479)">
      <g id="Group_68" data-name="Group 68">
        <path id="Path_64" data-name="Path 64" d="M508.072,373.736a.678.678,0,0,0-.3.043l-.215.082.274-1.091a1.6,1.6,0,0,0-1.938-1.937l-1.091.273.082-.215a.67.67,0,0,0-.678-.907,6.91,6.91,0,0,0-4.176,2.055c-2.337,2.339-2.758,5.717-.939,7.532A4.018,4.018,0,0,0,502,380.709a5.46,5.46,0,0,0,.76-.056,7.265,7.265,0,0,0,5.921-6.2A.666.666,0,0,0,508.072,373.736Zm-3.853-1.114,2-.5a.267.267,0,0,1,.323.193.275.275,0,0,1,0,.129l-.5,2-2.966,1.143Zm1.465,5.068a5.633,5.633,0,0,1-3.114,1.648,2.9,2.9,0,0,1-2.535-.706c-1.3-1.3-.874-3.831.939-5.65a5.988,5.988,0,0,1,2.227-1.426l-1.907,4.954a.666.666,0,0,0,.862.861l4.951-1.907A6,6,0,0,1,505.684,377.69Z" transform="translate(-497.963 -369.982)" fill="#232323"/>
      </g>
    </g>
    <g id="Group_71" data-name="Group 71" transform="translate(513.828 383.131)">
      <g id="Group_70" data-name="Group 70">
        <path id="Path_65" data-name="Path 65" d="M517.729,381.052a3.992,3.992,0,0,0-2.822,1.169,11.717,11.717,0,0,0-3.378,7.213l-.112,1.2a.664.664,0,0,0,.6.722.6.6,0,0,0,.063,0h.061l1.2-.109a11.723,11.723,0,0,0,7.213-3.378,4,4,0,0,0-2.825-6.824Zm1.888,5.878,0,0a10.394,10.394,0,0,1-6.391,3l-.4.037.037-.4a10.383,10.383,0,0,1,3-6.391,2.663,2.663,0,0,1,3.766,3.765Z" transform="translate(-511.415 -381.052)" fill="#232323"/>
      </g>
    </g>
    <g id="Group_73" data-name="Group 73" transform="translate(503.845 381.133)">
      <g id="Group_72" data-name="Group 72">
        <path id="Path_66" data-name="Path 66" d="M509.67,379.3a3,3,0,0,0-3,3,1,1,0,0,1-1,1,3,3,0,1,0,0,5.991,7,7,0,0,0,6.99-6.99A3,3,0,0,0,509.67,379.3Zm-3.994,8.654a1.664,1.664,0,0,1,0-3.328,2.33,2.33,0,0,0,2.33-2.33,1.664,1.664,0,0,1,3.328,0A5.665,5.665,0,0,1,505.675,387.958Z" transform="translate(-502.68 -379.304)" fill="#232323"/>
      </g>
    </g>
    <g id="Group_75" data-name="Group 75" transform="translate(525.145 378.019)">
      <g id="Group_74" data-name="Group 74">
        <path id="Path_67" data-name="Path 67" d="M525.979,376.579c-2.57,0-4.661,2.687-4.661,5.991a6.91,6.91,0,0,0,1.5,4.4.666.666,0,0,0,.938.08.673.673,0,0,0,.179-.239l.093-.209.579.965a1.6,1.6,0,0,0,2.741,0l.579-.965.093.209a.669.669,0,0,0,.514.39.643.643,0,0,0,.095.007.663.663,0,0,0,.509-.238,6.91,6.91,0,0,0,1.5-4.4C530.639,379.266,528.548,376.579,525.979,376.579Zm.229,10.308a.267.267,0,0,1-.457,0l-1.061-1.768,1.289-2.905,1.289,2.905Zm2.531-1.735h0l-2.153-4.849a.667.667,0,0,0-1.217,0l-2.15,4.849a5.978,5.978,0,0,1-.568-2.582c0-2.569,1.494-4.66,3.329-4.66s3.329,2.09,3.329,4.66A5.98,5.98,0,0,1,528.739,385.152Z" transform="translate(-521.317 -376.579)" fill="#232323"/>
      </g>
    </g>
    <g id="Group_77" data-name="Group 77" transform="translate(498.862 393.457)">
      <g id="Group_76" data-name="Group 76">
        <path id="Path_68" data-name="Path 68" d="M508.626,399.668l-.11-1.2a11.719,11.719,0,0,0-3.377-7.213,3.995,3.995,0,1,0-5.649,5.649,11.714,11.714,0,0,0,7.212,3.378l1.2.11h.059a.667.667,0,0,0,.669-.664A.584.584,0,0,0,508.626,399.668Zm-1.8-.71a10.383,10.383,0,0,1-6.391-3,2.663,2.663,0,0,1,0-3.765l0,0a2.663,2.663,0,0,1,3.766,0h0a10.376,10.376,0,0,1,3,6.39l.038.406Z" transform="translate(-498.32 -390.087)" fill="#232323"/>
      </g>
    </g>
    <g id="Group_79" data-name="Group 79" transform="translate(521.818 391.784)">
      <g id="Group_78" data-name="Group 78">
        <path id="Path_69" data-name="Path 69" d="M525.4,388.623a3,3,0,0,0-3,3,1,1,0,0,1-1,1,3,3,0,1,0,0,5.991,7,7,0,0,0,6.991-6.99A3,3,0,0,0,525.4,388.623Zm-3.994,8.654a1.664,1.664,0,1,1,0-3.328,2.33,2.33,0,0,0,2.33-2.33,1.664,1.664,0,1,1,3.328,0A5.663,5.663,0,0,1,521.4,397.277Z" transform="translate(-518.406 -388.623)" fill="#232323"/>
      </g>
    </g>
    <g id="Group_81" data-name="Group 81" transform="translate(510.437 395.762)">
      <g id="Group_80" data-name="Group 80">
        <path id="Path_70" data-name="Path 70" d="M519.164,398.378a7.262,7.262,0,0,0-5.924-6.2,4.205,4.205,0,0,0-3.663,1.082c-1.816,1.816-1.4,5.192.942,7.53a6.893,6.893,0,0,0,4.176,2.054.469.469,0,0,0,.057,0,.666.666,0,0,0,.665-.665.678.678,0,0,0-.045-.239l-.082-.214,1.091.272a1.577,1.577,0,0,0,.393.049,1.6,1.6,0,0,0,1.545-1.985l-.273-1.094.214.083a.671.671,0,0,0,.637-.086A.663.663,0,0,0,519.164,398.378Zm-2.207,2.258a.267.267,0,0,1-.254.07l-2-.5-1.142-2.966,2.966,1.144.5,2A.261.261,0,0,1,516.957,400.637Zm-4.317-5.177a.666.666,0,0,0-.861.862l1.907,4.95a5.981,5.981,0,0,1-2.229-1.424c-1.816-1.817-2.239-4.351-.942-5.648a2.718,2.718,0,0,1,1.97-.747,4.072,4.072,0,0,1,.566.041,5.624,5.624,0,0,1,3.115,1.647,5.976,5.976,0,0,1,1.424,2.229Z" transform="translate(-508.448 -392.104)" fill="#232323"/>
      </g>
    </g>
    <g id="Group_83" data-name="Group 83" transform="translate(494.526 381.771)">
      <g id="Group_82" data-name="Group 82">
        <path id="Path_71" data-name="Path 71" d="M500.808,385h0a3,3,0,0,0-4.184-4.288l-.051.051a6.99,6.99,0,0,0,0,9.885,2.995,2.995,0,1,0,4.236-4.235A1,1,0,0,1,500.808,385Zm-.941,4.71a1.7,1.7,0,0,1-2.353,0,5.658,5.658,0,0,1,0-8h0a1.664,1.664,0,0,1,2.353,2.353,2.334,2.334,0,0,0,0,3.3A1.663,1.663,0,0,1,499.868,389.711Z" transform="translate(-494.526 -379.862)" fill="#232323"/>
      </g>
    </g>
  </g>
</svg>
