<svg xmlns="http://www.w3.org/2000/svg" width="37.342" height="40" viewBox="0 0 37.342 40">
  <g id="Group_85" data-name="Group 85" transform="translate(-207.039 -220.756)">
    <path id="Path_72" data-name="Path 72" d="M242.821,231.107c-1.24-6.472-5.985-11.076-10.566-10.257a6.8,6.8,0,0,0-4.407,3.007,13.846,13.846,0,0,0-1.676,10.232c.107.553.24,1.1.4,1.628a12.893,12.893,0,0,1-.19,7.416,15.275,15.275,0,0,0-.29,7.271c1.145,5.971,5.268,10.352,9.5,10.352a5.932,5.932,0,0,0,1.064-.095,6.8,6.8,0,0,0,4.407-3.005,13.85,13.85,0,0,0,1.678-10.234c-.107-.553-.24-1.1-.4-1.628a12.9,12.9,0,0,1,.19-7.415A15.275,15.275,0,0,0,242.821,231.107Zm-1.759,15.066c.146.487.267.992.366,1.5a12.474,12.474,0,0,1-1.467,9.223,5.5,5.5,0,0,1-3.542,2.451c-3.872.683-7.917-3.438-9.019-9.193a13.915,13.915,0,0,1,.255-6.633,14.234,14.234,0,0,0,.193-8.183,15.139,15.139,0,0,1-.366-1.5,12.483,12.483,0,0,1,1.466-9.223,5.5,5.5,0,0,1,3.543-2.451,4.842,4.842,0,0,1,.851-.078c3.6,0,7.146,3.934,8.167,9.27a13.916,13.916,0,0,1-.255,6.633,14.245,14.245,0,0,0-.193,8.181Z" transform="translate(1.254 0)" fill="#232323"/>
    <path id="Path_73" data-name="Path 73" d="M224.073,231.107c-1.239-6.472-5.985-11.076-10.566-10.257a6.8,6.8,0,0,0-4.406,3.007,13.846,13.846,0,0,0-1.676,10.232,15.909,15.909,0,0,0,.4,1.628,12.911,12.911,0,0,1-.19,7.416,15.261,15.261,0,0,0-.289,7.271c1.139,5.971,5.264,10.352,9.5,10.352a5.941,5.941,0,0,0,1.064-.095,6.8,6.8,0,0,0,4.406-3.005,13.84,13.84,0,0,0,1.679-10.234c-.106-.553-.24-1.1-.4-1.628a12.908,12.908,0,0,1,.19-7.415A15.262,15.262,0,0,0,224.073,231.107Zm-1.758,15.066c.146.487.267.992.366,1.5a12.479,12.479,0,0,1-1.467,9.223,5.5,5.5,0,0,1-3.542,2.451c-3.871.683-7.918-3.438-9.019-9.193a13.9,13.9,0,0,1,.255-6.636,14.234,14.234,0,0,0,.193-8.183,15.061,15.061,0,0,1-.366-1.5,12.478,12.478,0,0,1,1.467-9.223,5.5,5.5,0,0,1,3.542-2.451,4.838,4.838,0,0,1,.851-.075c3.6,0,7.146,3.934,8.168,9.27a13.93,13.93,0,0,1-.256,6.633,14.227,14.227,0,0,0-.193,8.181Z" transform="translate(0 0)" fill="#232323"/>
    <path id="Path_74" data-name="Path 74" d="M221.41,236.01c.187-1.462.431-5.177-1.319-8.1A5.107,5.107,0,0,0,216.8,225.7a6.319,6.319,0,0,1-1.978-.873l-.125-.094c-.133-.1-.272-.2-.412-.3a1.751,1.751,0,0,0-2.209-.052c-2.133,1.651-3.035,5.447-2.246,9.446a12.941,12.941,0,0,0,2.55,5.7,1.862,1.862,0,0,0-.3.19c-2.133,1.651-3.035,5.447-2.246,9.448.928,4.7,3.8,8.036,6.744,8.036a3.933,3.933,0,0,0,.75-.071c3.184-.632,3.934-4.591,4.083-5.789.187-1.462.431-5.177-1.319-8.1a4.241,4.241,0,0,0-1.933-1.717C220.639,240.439,221.273,237.1,221.41,236.01Zm-2.467,7.921a11.771,11.771,0,0,1,1.142,7.243c-.124.975-.709,4.192-3.019,4.65-2.38.473-5.093-2.7-5.927-6.916-.685-3.462.036-6.806,1.753-8.134a.316.316,0,0,1,.2-.09.914.914,0,0,1,.45.2c.117.078.234.166.348.253l.133.1a7.581,7.581,0,0,0,2.38,1.071,3.816,3.816,0,0,1,2.539,1.623Zm-1.875-3.441c-2.381.473-5.093-2.7-5.928-6.917-.684-3.461.036-6.8,1.754-8.133a.316.316,0,0,1,.2-.09.913.913,0,0,1,.451.2c.117.078.234.166.347.253l.133.1a7.588,7.588,0,0,0,2.378,1.074,3.8,3.8,0,0,1,2.541,1.623,11.764,11.764,0,0,1,1.141,7.243C219.963,236.816,219.377,240.032,217.069,240.49Z" transform="translate(0.168 0.218)" fill="#232323"/>
    <path id="Path_75" data-name="Path 75" d="M213.895,227.98l-1.208-.568a6.383,6.383,0,0,0-.461,1.429l1.3.271A5.17,5.17,0,0,1,213.895,227.98Z" transform="translate(0.347 0.445)" fill="#232323"/>
    <path id="Path_76" data-name="Path 76" d="M213.389,230.16l-1.334-.061a11.764,11.764,0,0,0,.224,2.809,10.287,10.287,0,0,0,1.829,4.292l1.061-.808a9.231,9.231,0,0,1-1.58-3.743A10.376,10.376,0,0,1,213.389,230.16Z" transform="translate(0.335 0.625)" fill="#232323"/>
    <path id="Path_77" data-name="Path 77" d="M213.895,242.352l-1.208-.568a6.41,6.41,0,0,0-.461,1.428l1.3.272A5.17,5.17,0,0,1,213.895,242.352Z" transform="translate(0.347 1.407)" fill="#232323"/>
    <path id="Path_78" data-name="Path 78" d="M213.389,244.532l-1.334-.061a11.777,11.777,0,0,0,.224,2.81,10.289,10.289,0,0,0,1.829,4.291l1.061-.809a9.22,9.22,0,0,1-1.58-3.742A10.371,10.371,0,0,1,213.389,244.532Z" transform="translate(0.335 1.587)" fill="#232323"/>
    <path id="Path_79" data-name="Path 79" d="M230.881,248.524a.668.668,0,0,0-.7.628,7.388,7.388,0,0,1-.487,2.319.667.667,0,0,0,.4.856.675.675,0,0,0,.229.041.667.667,0,0,0,.626-.437,8.642,8.642,0,0,0,.565-2.7.668.668,0,0,0-.627-.707Z" transform="translate(1.513 1.858)" fill="#232323"/>
    <path id="Path_80" data-name="Path 80" d="M230.845,234.377h-.016a.665.665,0,0,0-.651.677v.253a8.466,8.466,0,0,1-.235,2.123.667.667,0,1,0,1.292.33,9.719,9.719,0,0,0,.275-2.45v-.284A.667.667,0,0,0,230.845,234.377Z" transform="translate(1.531 0.911)" fill="#232323"/>
    <path id="Path_81" data-name="Path 81" d="M229.593,242.942a.667.667,0,0,0,.653-.677v-.2a8.389,8.389,0,0,1,.244-2.168.667.667,0,0,0-1.29-.337,9.666,9.666,0,0,0-.288,2.505v.229a.665.665,0,0,0,.667.653Z" transform="translate(1.464 1.225)" fill="#232323"/>
    <path id="Path_82" data-name="Path 82" d="M229.6,229.716a.667.667,0,0,0-.533.778,10.219,10.219,0,0,0,.546,1.823c.087.232.174.462.255.709a.667.667,0,0,0,1.266-.412c-.087-.267-.181-.517-.275-.768a8.871,8.871,0,0,1-.483-1.6A.67.67,0,0,0,229.6,229.716Z" transform="translate(1.473 0.599)" fill="#232323"/>
    <path id="Path_83" data-name="Path 83" d="M230.725,247.6a.634.634,0,0,0,.127-.013.665.665,0,0,0,.527-.781,10.2,10.2,0,0,0-.532-1.772c-.093-.244-.185-.488-.268-.751a.667.667,0,0,0-1.266.405c.092.286.191.552.29.815a8.924,8.924,0,0,1,.476,1.555A.666.666,0,0,0,230.725,247.6Z" transform="translate(1.489 1.546)" fill="#232323"/>
    <path id="Path_84" data-name="Path 84" d="M229.558,228.789h.042a.667.667,0,0,0,.667-.626,7.431,7.431,0,0,1,.5-2.319.667.667,0,1,0-1.251-.462,8.773,8.773,0,0,0-.581,2.7A.667.667,0,0,0,229.558,228.789Z" transform="translate(1.465 0.28)" fill="#232323"/>
    <path id="Path_85" data-name="Path 85" d="M234.564,234.925a.667.667,0,0,0-.654.679l0,.306a10.15,10.15,0,0,1-.235,2.333.666.666,0,0,0,.5.8.717.717,0,0,0,.152.017.666.666,0,0,0,.648-.516,11.372,11.372,0,0,0,.267-2.632l0-.333A.689.689,0,0,0,234.564,234.925Z" transform="translate(1.781 0.948)" fill="#232323"/>
    <path id="Path_86" data-name="Path 86" d="M234.6,250.479a.673.673,0,0,0-.7.626,8.8,8.8,0,0,1-.519,2.579.668.668,0,0,0,.415.847.644.644,0,0,0,.216.036.666.666,0,0,0,.631-.451,10.15,10.15,0,0,0,.588-2.933A.666.666,0,0,0,234.6,250.479Z" transform="translate(1.76 1.989)" fill="#232323"/>
    <path id="Path_87" data-name="Path 87" d="M233.319,244.209a.668.668,0,0,0,.657-.676v-.249a10.078,10.078,0,0,1,.248-2.387.666.666,0,0,0-.84-.806.662.662,0,0,0-.457.5,11.388,11.388,0,0,0-.285,2.7v.27a.666.666,0,0,0,.667.656Z" transform="translate(1.713 1.292)" fill="#232323"/>
    <path id="Path_88" data-name="Path 88" d="M234.46,249.346a.661.661,0,0,0,.112-.01.668.668,0,0,0,.546-.769,11.669,11.669,0,0,0-.542-1.987c-.089-.258-.176-.515-.258-.794a.666.666,0,1,0-1.278.376c.086.3.18.575.276.851a10.549,10.549,0,0,1,.487,1.776A.668.668,0,0,0,234.46,249.346Z" transform="translate(1.738 1.642)" fill="#232323"/>
    <path id="Path_89" data-name="Path 89" d="M233.305,228.652h.043a.668.668,0,0,0,.667-.624,8.97,8.97,0,0,1,.532-2.581.667.667,0,0,0-1.261-.433,10.388,10.388,0,0,0-.606,2.929.668.668,0,0,0,.625.709Z" transform="translate(1.716 0.255)" fill="#232323"/>
    <path id="Path_90" data-name="Path 90" d="M233.344,229.793a.665.665,0,0,0-.553.763,11.508,11.508,0,0,0,.554,2.057c.081.24.163.48.24.734a.665.665,0,0,0,.639.474.691.691,0,0,0,.192-.028.666.666,0,0,0,.446-.83c-.082-.272-.17-.528-.256-.784a10.212,10.212,0,0,1-.5-1.835A.665.665,0,0,0,233.344,229.793Z" transform="translate(1.723 0.604)" fill="#232323"/>
    <path id="Path_91" data-name="Path 91" d="M238.379,250.294a.671.671,0,0,0-.7.628,7.689,7.689,0,0,1-.491,2.373.667.667,0,1,0,1.255.45,8.977,8.977,0,0,0,.567-2.748A.666.666,0,0,0,238.379,250.294Z" transform="translate(2.015 1.976)" fill="#232323"/>
    <path id="Path_92" data-name="Path 92" d="M237.058,230.137h.041a.667.667,0,0,0,.667-.625,7.656,7.656,0,0,1,.509-2.372.667.667,0,1,0-1.253-.458,8.884,8.884,0,0,0-.587,2.746A.667.667,0,0,0,237.058,230.137Z" transform="translate(1.967 0.367)" fill="#232323"/>
    <path id="Path_93" data-name="Path 93" d="M238.343,235.861h-.015a.665.665,0,0,0-.652.683l0,.268a8.781,8.781,0,0,1-.234,2.162.666.666,0,0,0,.486.808.751.751,0,0,0,.162.02.669.669,0,0,0,.647-.507,10.137,10.137,0,0,0,.269-2.491v-.29A.668.668,0,0,0,238.343,235.861Z" transform="translate(2.033 1.011)" fill="#232323"/>
    <path id="Path_94" data-name="Path 94" d="M238.227,249.332a.667.667,0,0,0,.655-.792,10.584,10.584,0,0,0-.537-1.81c-.093-.248-.185-.5-.267-.764a.667.667,0,1,0-1.273.4c.092.29.191.559.29.829a9.2,9.2,0,0,1,.478,1.594A.666.666,0,0,0,238.227,249.332Z" transform="translate(1.99 1.656)" fill="#232323"/>
    <path id="Path_95" data-name="Path 95" d="M237.1,231.107a.668.668,0,0,0-.538.776,10.354,10.354,0,0,0,.551,1.878c.086.232.172.461.252.708a.666.666,0,0,0,1.269-.405c-.085-.267-.178-.514-.269-.763a9.1,9.1,0,0,1-.49-1.653.666.666,0,0,0-.775-.541Z" transform="translate(1.975 0.692)" fill="#232323"/>
    <path id="Path_96" data-name="Path 96" d="M237.091,244.574a.668.668,0,0,0,.653-.679v-.209a8.711,8.711,0,0,1,.245-2.216.667.667,0,1,0-1.291-.333,10.007,10.007,0,0,0-.288,2.549v.233a.667.667,0,0,0,.667.655Z" transform="translate(1.965 1.33)" fill="#232323"/>
  </g>
</svg>
