<svg xmlns="http://www.w3.org/2000/svg" width="37.8" height="42" viewBox="0 0 37.8 42">
  <g id="Pet_love_icon_default" data-name="Pet love icon default" transform="translate(-231.439 -226.001)">
    <path id="Path_51" data-name="Path 51" d="M251.146,242.71A4.83,4.83,0,0,0,252.2,247.9a4.909,4.909,0,0,0,3.367,1.474,4.969,4.969,0,0,0,2.805-.769,4.967,4.967,0,0,0,2.657.771l.148,0a4.914,4.914,0,0,0,3.343-1.449,4.827,4.827,0,0,0,.928-5.555,12.068,12.068,0,0,0-1.8-2.454.621.621,0,0,0-.871-.055.608.608,0,0,0-.056.864,11.239,11.239,0,0,1,1.621,2.182,3.588,3.588,0,0,1,.37,1.669,3.66,3.66,0,0,1-3.568,3.576,3.714,3.714,0,0,1-2.387-.777.621.621,0,0,0-.762,0,3.689,3.689,0,0,1-5.955-2.851,3.6,3.6,0,0,1,.257-1.363,12.641,12.641,0,0,1,2.9-3.785,4.422,4.422,0,0,1,5.759-.442.62.62,0,0,0,.864-.122.607.607,0,0,0-.123-.856,5.671,5.671,0,0,0-7.384.564A13.459,13.459,0,0,0,251.146,242.71Z" transform="translate(-5.809 -3.255)" fill="#232323"/>
    <path id="Path_52" data-name="Path 52" d="M255.727,233.3c1.587,0,2.879-1.638,2.879-3.65S257.314,226,255.727,226s-2.88,1.638-2.88,3.65S254.139,233.3,255.727,233.3Zm0-6.077c.89,0,1.643,1.111,1.643,2.426s-.753,2.428-1.643,2.428-1.644-1.112-1.644-2.428S254.836,227.225,255.727,227.225Z" transform="translate(-6.422)" fill="#232323"/>
    <path id="Path_53" data-name="Path 53" d="M247.554,240.238c1.281,0,2.285-1.253,2.285-2.853s-1-2.852-2.285-2.852-2.285,1.252-2.285,2.852S246.273,240.238,247.554,240.238Zm0-4.481c.569,0,1.049.746,1.049,1.628s-.481,1.628-1.049,1.628-1.049-.746-1.049-1.628S246.985,235.758,247.554,235.758Z" transform="translate(-4.149 -2.56)" fill="#232323"/>
    <path id="Path_54" data-name="Path 54" d="M273.388,240.238c1.282,0,2.285-1.253,2.285-2.853s-1-2.852-2.285-2.852-2.284,1.252-2.284,2.852S272.108,240.238,273.388,240.238Zm0-4.481c.57,0,1.05.746,1.05,1.628s-.481,1.628-1.05,1.628-1.049-.746-1.049-1.628S272.82,235.758,273.388,235.758Z" transform="translate(-11.9 -2.56)" fill="#232323"/>
    <path id="Path_55" data-name="Path 55" d="M266.055,233.3c1.587,0,2.879-1.638,2.879-3.65S267.642,226,266.055,226s-2.88,1.638-2.88,3.65S264.466,233.3,266.055,233.3Zm0-6.077c.89,0,1.644,1.111,1.644,2.426s-.753,2.428-1.644,2.428-1.644-1.112-1.644-2.428S265.163,227.225,266.055,227.225Z" transform="translate(-9.521)" fill="#232323"/>
    <path id="Path_56" data-name="Path 56" d="M276.938,253.41a3.31,3.31,0,0,0-2.344-.962h0a3.311,3.311,0,0,0-2.345.962l-3.635,3.6a3.325,3.325,0,0,0-2.455-1.079H263.7a.612.612,0,1,0,0,1.224h2.455a2.061,2.061,0,1,1,0,4.122H260.95a.612.612,0,1,0,0,1.224h5.208a3.3,3.3,0,0,0,3.316-3.285,3.227,3.227,0,0,0-.2-1.13l.022-.019,3.829-3.793a2.1,2.1,0,0,1,2.942,0,2.051,2.051,0,0,1,0,2.915l-7.677,7.6h-4.156a.612.612,0,1,0,0,1.224h4.412a.622.622,0,0,0,.437-.179l7.857-7.783A3.267,3.267,0,0,0,276.938,253.41Z" transform="translate(-8.668 -7.934)" fill="#232323"/>
    <path id="Path_57" data-name="Path 57" d="M253.091,266.287h-2.812a.621.621,0,0,0-.434.176l-1.943,1.9-4.747-4.7a3.931,3.931,0,0,1-.136-1.033,3.993,3.993,0,0,1,4.008-3.97.662.662,0,0,0,.107-.01h5.43a.612.612,0,1,0,0-1.224h-6.026a.62.62,0,0,0-.278.066,5.218,5.218,0,0,0-4.473,4.974l-.5-.494a.622.622,0,0,0-.874,0l-3.273,3.242a.56.56,0,0,0-.057.066l-5.48,6.072a.611.611,0,0,0-.157.407l-.01,5.028a.615.615,0,0,0,.616.613l10.18.028h0a.619.619,0,0,0,.436-.179l3.309-3.277.038-.038,3.235-3.2a.608.608,0,0,0,0-.866l-.56-.555,1.837-1.8h2.559a.612.612,0,1,0,0-1.224Zm-11.11,9.916-9.306-.025.008-4.184,4.922-5.455,7.066,7Zm3.6-3.568-7.094-7.026,2.362-2.34,7.094,7.027Z" transform="translate(0 -9.428)" fill="#232323"/>
  </g>
</svg>
