<svg xmlns="http://www.w3.org/2000/svg" width="35" height="35" viewBox="0 0 35 35">
  <g id="Group_96" data-name="Group 96" transform="translate(-238.499 -238.5)">
    <path id="Path_112" data-name="Path 112" d="M263.675,264.44a5.123,5.123,0,1,0,7.244,0A5.128,5.128,0,0,0,263.675,264.44Zm5.8,5.795a3.073,3.073,0,1,1,0-4.346A3.076,3.076,0,0,1,269.47,270.235Z" fill="#232323"/>
    <path id="Path_113" data-name="Path 113" d="M264.2,240.7a35.106,35.106,0,0,0-23.549,23.55,43.867,43.867,0,0,0-1.989,7.942L238.5,273.5c8.655-1.1,17.922-4.881,23.983-10.942,6.1-6.1,9.885-15.427,11.017-24.058A43.282,43.282,0,0,0,264.2,240.7Zm-13.312,10.269c4.975-4.975,12.211-8.245,19.115-9.8q-2.1,2.89-4.392,5.7c-.075-.086-.153-.17-.234-.251a5.124,5.124,0,0,0-8.694,4.349,5.117,5.117,0,0,0-5.793,5.793,5.123,5.123,0,0,0-4.349,8.694c.079.079.161.153.244.228q-2.776,2.264-5.638,4.338C242.665,263.172,245.907,255.95,250.891,250.966ZM248.4,264.348a3.124,3.124,0,0,1-.4-.341,3.074,3.074,0,1,1,4.887-3.615Q250.678,262.425,248.4,264.348Zm6.189-5.562a3.074,3.074,0,1,1,3.549-4.922,3.132,3.132,0,0,1,.576.8Q256.695,256.769,254.587,258.786Zm5.732-5.828a3.115,3.115,0,0,1-.735-.543,3.074,3.074,0,1,1,4.693-3.934Q262.355,250.757,260.319,252.958Zm.714,8.15c-4.494,4.495-10.717,7.508-16.795,9.179a134.515,134.515,0,0,0,26.017-26.008C268.553,250.391,265.519,256.623,261.033,261.108Z" fill="#232323"/>
  </g>
</svg>
