<svg xmlns="http://www.w3.org/2000/svg" width="41.945" height="41.949" viewBox="0 0 41.945 41.949">
  <g id="Veg_icon_default" data-name="Veg icon default" transform="translate(-390.975 -267.64)">
    <g id="Group_3" data-name="Group 3" transform="translate(390.946 294.21)">
      <path id="Path_33" data-name="Path 33" d="M432.189,305.643H391.645a.7.7,0,0,0-.7.7,14.7,14.7,0,0,0,14.68,14.681h12.583a14.7,14.7,0,0,0,14.68-14.681A.7.7,0,0,0,432.189,305.643Zm-13.98,13.982H405.626a13.3,13.3,0,0,1-13.263-12.584h39.11A13.3,13.3,0,0,1,418.208,319.625Z" transform="translate(-390.946 -305.643)" fill="#232323"/>
    </g>
    <g id="Group_5" data-name="Group 5" transform="translate(405.626 267.641)">
      <path id="Path_34" data-name="Path 34" d="M432.918,277.435c0-.051,0-.1-.006-.18a2.9,2.9,0,0,0-1.956-2.468l.791-.792a3.744,3.744,0,0,0,.31-5.013,3.675,3.675,0,0,0-5.167-.5c-.089.073-.175.151-.261.237l-.86.873a2.918,2.918,0,0,0-2.491-1.947,2.793,2.793,0,0,0-2.942,2.643c0,.051,0,.1,0,.152v1.072a2.777,2.777,0,0,0-1.395-.376c-.05,0-.1,0-.18.006a2.9,2.9,0,0,0-2.619,2.912v.952a2.786,2.786,0,0,0-1.4-.373c-.05,0-.1,0-.179,0a2.9,2.9,0,0,0-2.619,2.913v10.368a.7.7,0,0,0,.7.7h11.883a2.794,2.794,0,0,0,2.42-4.193h.944a2.891,2.891,0,0,0,2.926-2.647,2.774,2.774,0,0,0-.382-1.565,2.8,2.8,0,0,0,2.483-2.776Zm-1.809.987a1.391,1.391,0,0,1-.988.408h-2.1a.7.7,0,0,0,0,1.4l.078,0a1.4,1.4,0,0,1,1.324,1.444,1.49,1.49,0,0,1-1.52,1.351h-3.377a.7.7,0,0,0,0,1.4,1.4,1.4,0,1,1,0,2.8H413.342v-9.681a1.492,1.492,0,0,1,1.324-1.506l.076,0a1.4,1.4,0,0,1,1.4,1.4v0a.7.7,0,0,0,.7.7h0a.7.7,0,0,0,.7-.7h0v-3.388a1.492,1.492,0,0,1,1.324-1.507h.076a1.4,1.4,0,0,1,1.4,1.4v0a.7.7,0,0,0,.7.7h0a.7.7,0,0,0,.7-.7h0v-3.5l0-.078a1.386,1.386,0,0,1,1.443-1.324,1.5,1.5,0,0,1,1.35,1.521v.58a.7.7,0,0,0,1.2.49l1.9-1.925c.052-.051.1-.1.16-.145a2.273,2.273,0,0,1,3.19.3,2.35,2.35,0,0,1-.2,3.141l-1.839,1.838a.7.7,0,0,0,.494,1.193h.617a1.489,1.489,0,0,1,1.48,1.324l0,.077A1.39,1.39,0,0,1,431.11,278.423Z" transform="translate(-411.944 -267.641)" fill="#232323"/>
    </g>
    <g id="Group_7" data-name="Group 7" transform="translate(401.637 272.042)">
      <rect id="Rectangle_1" data-name="Rectangle 1" width="27.681" height="1.397" transform="translate(0 19.575) rotate(-45.001)" fill="#232323"/>
    </g>
    <g id="Group_9" data-name="Group 9" transform="translate(416.809 273.241)">
      <rect id="Rectangle_2" data-name="Rectangle 2" width="1" height="3" transform="translate(0.135 0.4)" fill="#232323"/>
    </g>
    <g id="Group_11" data-name="Group 11" transform="translate(412.615 276.736)">
      <rect id="Rectangle_3" data-name="Rectangle 3" width="1" height="4" transform="translate(0.33 -0.095)" fill="#232323"/>
    </g>
    <g id="Group_13" data-name="Group 13" transform="translate(408.421 280.225)">
      <rect id="Rectangle_4" data-name="Rectangle 4" width="2" height="4" transform="translate(-0.476 0.416)" fill="#232323"/>
    </g>
    <g id="Group_15" data-name="Group 15" transform="translate(417.508 276.037)">
      <rect id="Rectangle_5" data-name="Rectangle 5" width="3" height="2" transform="translate(0.436 -0.396)" fill="#232323"/>
    </g>
    <g id="Group_17" data-name="Group 17" transform="translate(413.314 280.225)">
      <rect id="Rectangle_6" data-name="Rectangle 6" width="5" height="1" transform="translate(-0.369 0.416)" fill="#232323"/>
    </g>
    <g id="Group_19" data-name="Group 19" transform="translate(409.119 284.419)">
      <rect id="Rectangle_7" data-name="Rectangle 7" width="5" height="1" transform="translate(-0.175 0.222)" fill="#232323"/>
    </g>
    <g id="Group_21" data-name="Group 21" transform="translate(393.477 269.234)">
      <path id="Path_35" data-name="Path 35" d="M405.083,271.561l0,0a3.225,3.225,0,0,0-4.467-.892c-.046.03-.092.062-.143.1l-.252.192-.242-.174a3.216,3.216,0,1,0-3.831,5.119l.588.459v.358a3.5,3.5,0,1,0,6.99,0v-.358l.619-.483A3.217,3.217,0,0,0,405.083,271.561Zm-1.594,3.209-.895.7a.7.7,0,0,0-.268.551v.7a2.1,2.1,0,1,1-4.195,0v-.7a.7.7,0,0,0-.268-.551l-.895-.7a.893.893,0,0,0-.085-.057,1.817,1.817,0,1,1,2.162-2.887.751.751,0,0,0,.076.064l.7.5a.7.7,0,0,0,.831-.01l.737-.554a1.808,1.808,0,0,1,2.1,2.941Z" transform="translate(-394.567 -269.919)" fill="#232323"/>
    </g>
    <g id="Group_23" data-name="Group 23" transform="translate(406.323 268.34)">
      <rect id="Rectangle_8" data-name="Rectangle 8" width="2" height="1" transform="translate(-0.379 0.301)" fill="#232323"/>
    </g>
    <g id="Group_25" data-name="Group 25" transform="translate(410.518 290.711)">
      <rect id="Rectangle_9" data-name="Rectangle 9" width="1" height="1" transform="translate(0.427 -0.07)" fill="#232323"/>
    </g>
    <g id="Group_27" data-name="Group 27" transform="translate(428.694 271.839)">
      <path id="Path_36" data-name="Path 36" d="M444.942,273.646v1.4a1.4,1.4,0,1,1,0,2.8v1.4a2.8,2.8,0,1,0,0-5.592Z" transform="translate(-444.942 -273.646)" fill="#232323"/>
    </g>
    <g id="Group_29" data-name="Group 29" transform="translate(392.343 278.135)">
      <rect id="Rectangle_10" data-name="Rectangle 10" width="2" height="2" transform="translate(-0.397 -0.493)" fill="#232323"/>
    </g>
    <g id="Group_31" data-name="Group 31" transform="translate(390.946 275.338)">
      <rect id="Rectangle_11" data-name="Rectangle 11" width="1" height="1" transform="translate(0 0.303)" fill="#232323"/>
    </g>
    <g id="Group_33" data-name="Group 33" transform="translate(415.412 290.015)">
      <path id="Path_37" data-name="Path 37" d="M428.739,299.643a2.8,2.8,0,0,0-2.8,2.8h1.4a1.4,1.4,0,1,1,2.8,0h1.4A2.8,2.8,0,0,0,428.739,299.643Z" transform="translate(-425.943 -299.643)" fill="#232323"/>
    </g>
    <g id="Group_35" data-name="Group 35" transform="translate(390.946 281.626)">
      <path id="Path_38" data-name="Path 38" d="M399.334,289.741h-.088a2.8,2.8,0,0,0-5.416,0h-.088a2.8,2.8,0,0,0,0,5.593h5.592a2.8,2.8,0,0,0,0-5.593Zm0,4.2h-5.592a1.4,1.4,0,0,1,0-2.8h.7a.7.7,0,0,0,.7-.7,1.4,1.4,0,1,1,2.8,0,.7.7,0,0,0,.7.7h.7a1.4,1.4,0,0,1,0,2.8Z" transform="translate(-390.946 -287.644)" fill="#232323"/>
    </g>
    <g id="Group_37" data-name="Group 37" transform="translate(394.441 287.918)">
      <path id="Path_39" data-name="Path 39" d="M399.441,296.643h-2.8a.7.7,0,0,0-.7.7v2.8a.7.7,0,0,0,.7.7h2.8a.7.7,0,0,0,.7-.7v-2.8A.7.7,0,0,0,399.441,296.643Zm-.7,2.8h-1.4v-1.4h1.4v1.4Z" transform="translate(-395.946 -296.643)" fill="#232323"/>
    </g>
    <g id="Group_39" data-name="Group 39" transform="translate(425.898 285.82)">
      <path id="Path_40" data-name="Path 40" d="M443.039,293.643a2.1,2.1,0,1,0,2.1,2.1A2.1,2.1,0,0,0,443.039,293.643Zm0,2.8a.7.7,0,1,1,.7-.7A.7.7,0,0,1,443.039,296.44Z" transform="translate(-440.942 -293.643)" fill="#232323"/>
    </g>
    <g id="Group_41" data-name="Group 41" transform="translate(423.101 283.024)">
      <path id="Path_41" data-name="Path 41" d="M441.836,289.644a4.894,4.894,0,1,0,4.893,4.893A4.9,4.9,0,0,0,441.836,289.644Zm0,8.389a3.5,3.5,0,1,1,3.5-3.5A3.5,3.5,0,0,1,441.836,298.033Z" transform="translate(-436.942 -289.644)" fill="#232323"/>
    </g>
  </g>
</svg>
